<?xml version="1.0" encoding="UTF-8"?><svg id="_레이어_2" xmlns="http://www.w3.org/2000/svg" viewBox="0 0 919.61 51.4"><defs><style>.cls-1{fill:#ca7358;}</style></defs><g id="Layer_1"><g><path class="cls-1" d="M460.08,22.36c40.4-17.8,78.38-14.45,86.59-13.63,23.86,2.38,19.59,5.17,57.27,11.45,25.64,4.28,46.55,7.77,71.01,7.09,25.86-.72,25.21-5.24,73.76-13.63,50.44-8.72,76.01-12.85,93-1.64,15.32,10.11,19.53,22.88,40.32,31.09,14.68,5.79,28.17,5.57,37.57,4.36-296.2,4.91-476.8,5.62-476.94,0-.08-3.3,62.05-9.85,61.85-12.54-.19-2.56-56.32,3.38-57.27-3.82-.22-1.65,2.44-4.15,12.83-8.73Z"/><path class="cls-1" d="M258.85,16.43C236.09-.6,214.7,2.6,210.07,3.38c-13.44,2.28-11.04,4.94-32.26,10.96-14.44,4.1-26.22,7.43-40,6.79-14.57-.69-14.2-5.02-41.55-13.05C67.85-.26,53.45-4.21,43.87,6.52c-8.63,9.67-11,21.9-22.71,29.75-8.27,5.55-15.87,5.33-21.16,4.18,166.85,4.7,268.58,5.38,268.65,0,.04-3.16-34.95-9.43-34.84-12.01,.11-2.45,31.72,3.24,32.26-3.65,.12-1.58-1.38-3.97-7.23-8.35Z"/></g></g></svg>