<?xml version="1.0" encoding="UTF-8"?><svg id="_레이어_2" xmlns="http://www.w3.org/2000/svg" viewBox="0 0 531.84 148.16"><defs><style>.cls-1{fill:#ffbe21;}</style></defs><g id="Layer_1"><g><circle class="cls-1" cx="33.36" cy="114.79" r="33.36"/><path class="cls-1" d="M262.97,31.09c6.73-9.07,8.17-20.43,4.88-30.39,.12-.23,.25-.46,.37-.7,9.74,.68,19.1,5.6,25.11,14.25,10.51,15.14,6.75,35.92-8.38,46.43-15.14,10.51-35.92,6.75-46.43-8.38-1.71-2.47-3.03-5.08-4-7.78,10.75,.53,21.56-4.14,28.46-13.43Z"/><path class="cls-1" d="M403.79,39.96c0-6.14-1.67-11.89-4.56-16.84,14.11,3.89,24.48,16.81,24.48,32.16,0,18.42-14.94,33.36-33.36,33.36-12.28,0-23.01-6.64-28.8-16.52,2.83,.78,5.81,1.2,8.88,1.2,18.42,0,33.36-14.94,33.36-33.36Z"/><path class="cls-1" d="M118.51,25.01c8.23-5.26,18.68-6.89,28.65-3.53,17.46,5.89,26.84,24.81,20.95,42.27-5.89,17.46-24.81,26.84-42.27,20.95-11.86-4-19.98-14.02-22.14-25.5,6.17-3.95,11.1-9.94,13.62-17.42,1.89-5.6,2.2-11.35,1.18-16.77Z"/><path class="cls-1" d="M523.43,120.19c4.58-11.32,2.5-23.67-4.39-32.73-.06-.86-.14-1.72-.26-2.58,11.62,8.9,16.38,24.77,10.62,38.99-6.91,17.08-26.36,25.32-43.44,18.4-2.9-1.17-5.54-2.72-7.9-4.54,.63,.3,1.27,.59,1.93,.86,17.08,6.91,36.53-1.32,43.44-18.4Z"/></g></g></svg>