<?xml version="1.0" encoding="UTF-8"?><svg id="_레이어_2" xmlns="http://www.w3.org/2000/svg" viewBox="0 0 705.07 301.51"><defs><style>.cls-1{fill:#a15842;}.cls-2{fill:#f5ebdd;}.cls-3{fill:#ffb7d5;stroke:#ca7358;stroke-miterlimit:10;stroke-width:2px;}.cls-4{fill:#30242a;}.cls-5{fill:#ca7358;}</style></defs><g id="Layer_1"><g><rect class="cls-1" x=".6" y="260.74" width="704.46" height="40.76"/><rect class="cls-3" x="1" y="2.78" width="110.4" height="257.34"/><rect class="cls-5" x=".38" width="112.03" height="12.71"/><rect class="cls-3" x="112.2" y="133.8" width="110.4" height="126.32"/><rect class="cls-5" x="111.57" y="132.44" width="112.03" height="23.26"/><rect class="cls-3" x="223.52" y="68.4" width="110.4" height="191.72"/><rect class="cls-5" x="222.89" y="66.33" width="112.03" height="17.65"/><g><path class="cls-2" d="M42.2,42.99h-.12c-.69-6.1-5.86-10.85-12.15-10.85s-11.46,4.75-12.15,10.85h-.1v5.38h24.51v-5.38Z"/><rect class="cls-2" x="17.68" y="51.22" width="24.51" height="16.28"/></g><g><path class="cls-5" d="M90.45,42.99h-.12c-.69-6.1-5.86-10.85-12.15-10.85s-11.46,4.75-12.15,10.85h-.1v5.38h24.51v-5.38Z"/><rect class="cls-5" x="65.94" y="51.22" width="24.51" height="16.28"/></g><g><path class="cls-2" d="M90.45,95.84h-.12c-.69-6.1-5.86-10.85-12.15-10.85s-11.46,4.75-12.15,10.85h-.1v5.38h24.51v-5.38Z"/><rect class="cls-2" x="65.94" y="104.08" width="24.51" height="16.28"/></g><g><path class="cls-3" d="M90.45,150.22h-.12c-.69-6.1-5.86-10.85-12.15-10.85s-11.46,4.75-12.15,10.85h-.1v5.38h24.51v-5.38Z"/><rect class="cls-3" x="65.94" y="158.46" width="24.51" height="16.28"/></g><g><path class="cls-4" d="M42.16,95.84h-.12c-.69-6.1-5.86-10.85-12.15-10.85s-11.46,4.75-12.15,10.85h-.1v5.38h24.51v-5.38Z"/><rect class="cls-4" x="17.65" y="104.08" width="24.51" height="16.28"/></g><g><path class="cls-2" d="M42.16,150.22h-.12c-.69-6.1-5.86-10.85-12.15-10.85s-11.46,4.75-12.15,10.85h-.1v5.38h24.51v-5.38Z"/><rect class="cls-2" x="17.65" y="158.46" width="24.51" height="16.28"/></g><g><rect class="cls-4" x="144.05" y="183.77" width="10.57" height="18.67"/><rect class="cls-4" x="129.9" y="168.4" width="24.72" height="12.51"/><rect class="cls-4" x="129.9" y="183.77" width="11.3" height="18.67"/></g><g><rect class="cls-4" x="308" y="168.05" width="10.57" height="18.67"/><rect class="cls-4" x="293.85" y="152.68" width="24.72" height="12.51"/><rect class="cls-4" x="293.85" y="168.05" width="11.3" height="18.67"/></g><g><rect class="cls-5" x="255.1" y="168.05" width="10.57" height="18.67"/><rect class="cls-5" x="240.95" y="152.68" width="24.72" height="12.51"/><rect class="cls-5" x="240.95" y="168.05" width="11.3" height="18.67"/></g><g><rect class="cls-2" x="194.6" y="182.24" width="10.57" height="18.67"/><rect class="cls-2" x="180.45" y="166.87" width="24.72" height="12.51"/><rect class="cls-2" x="180.45" y="182.24" width="11.3" height="18.67"/></g><rect class="cls-3" x="334.96" y="2.78" width="110.4" height="257.34"/><rect class="cls-5" x="334.33" width="112.03" height="12.71"/><rect class="cls-3" x="446.15" y="133.8" width="110.4" height="126.32"/><rect class="cls-5" x="445.53" y="132.44" width="112.03" height="23.26"/><rect class="cls-3" x="557.47" y="68.4" width="110.4" height="191.72"/><rect class="cls-5" x="556.85" y="66.33" width="112.03" height="17.65"/><g><path class="cls-2" d="M376.15,42.99h-.12c-.69-6.1-5.86-10.85-12.15-10.85s-11.46,4.75-12.15,10.85h-.1v5.38h24.51v-5.38Z"/><rect class="cls-2" x="351.64" y="51.22" width="24.51" height="16.28"/></g><g><path class="cls-4" d="M424.41,42.99h-.12c-.69-6.1-5.86-10.85-12.15-10.85s-11.46,4.75-12.15,10.85h-.1v5.38h24.51v-5.38Z"/><rect class="cls-4" x="399.9" y="51.22" width="24.51" height="16.28"/></g><g><path class="cls-2" d="M266.83,108.12h-.12c-.69-6.1-5.86-10.85-12.15-10.85s-11.46,4.75-12.15,10.85h-.1v5.38h24.51v-5.38Z"/><rect class="cls-2" x="242.31" y="116.36" width="24.51" height="16.28"/></g><g><path class="cls-3" d="M424.41,95.84h-.12c-.69-6.1-5.86-10.85-12.15-10.85s-11.46,4.75-12.15,10.85h-.1v5.38h24.51v-5.38Z"/><rect class="cls-3" x="399.9" y="104.08" width="24.51" height="16.28"/></g><g><path class="cls-2" d="M424.41,150.22h-.12c-.69-6.1-5.86-10.85-12.15-10.85s-11.46,4.75-12.15,10.85h-.1v5.38h24.51v-5.38Z"/><rect class="cls-2" x="399.9" y="158.46" width="24.51" height="16.28"/></g><g><path class="cls-2" d="M376.25,95.84h-.12c-.69-6.1-5.86-10.85-12.15-10.85s-11.46,4.75-12.15,10.85h-.1v5.38h24.51v-5.38Z"/><rect class="cls-2" x="351.73" y="104.08" width="24.51" height="16.28"/></g><g><path class="cls-2" d="M376.25,150.22h-.12c-.69-6.1-5.86-10.85-12.15-10.85s-11.46,4.75-12.15,10.85h-.1v5.38h24.51v-5.38Z"/><rect class="cls-2" x="351.73" y="158.46" width="24.51" height="16.28"/></g><g><rect class="cls-5" x="478.01" y="183.77" width="10.57" height="18.67"/><rect class="cls-5" x="463.85" y="168.4" width="24.72" height="12.51"/><rect class="cls-5" x="463.85" y="183.77" width="11.3" height="18.67"/></g><g><rect class="cls-2" x="528.56" y="182.24" width="10.57" height="18.67"/><rect class="cls-2" x="514.41" y="166.87" width="24.72" height="12.51"/><rect class="cls-2" x="514.41" y="182.24" width="11.3" height="18.67"/></g><path class="cls-5" d="M317.98,107.74c-.69-6.1-5.86-10.85-12.15-10.85s-11.46,4.75-12.15,10.85h-.1v24.51h24.51v-24.51h-.12Z"/><g><rect class="cls-5" x="641.52" y="168.05" width="10.57" height="18.67"/><rect class="cls-5" x="627.37" y="152.68" width="24.72" height="12.51"/><rect class="cls-5" x="627.37" y="168.05" width="11.3" height="18.67"/></g><g><rect class="cls-3" x="588.62" y="168.05" width="10.57" height="18.67"/><rect class="cls-3" x="574.47" y="152.68" width="24.72" height="12.51"/><rect class="cls-3" x="574.47" y="168.05" width="11.3" height="18.67"/></g><g><path class="cls-2" d="M600.35,108.12h-.12c-.69-6.1-5.86-10.85-12.15-10.85s-11.46,4.75-12.15,10.85h-.1v5.38h24.51v-5.38Z"/><rect class="cls-2" x="575.83" y="116.36" width="24.51" height="16.28"/></g><path class="cls-5" d="M651.5,107.74c-.69-6.1-5.86-10.85-12.15-10.85s-11.46,4.75-12.15,10.85h-.1v24.51h24.51v-24.51h-.12Z"/></g></g></svg>