<svg width="1920" height="93" viewBox="0 0 1920 93" fill="none" xmlns="http://www.w3.org/2000/svg">
<path d="M40.8863 79.6L42.4033 80.9033L43.5156 79.6086L42.4118 78.3066L40.8863 79.6ZM31.5262 68.56L33.0518 67.2666L31.5956 65.5491L30.0619 67.1978L31.5262 68.56ZM29.9663 23.2L28.5908 24.6519L30.1513 26.1303L31.5134 24.4674L29.9663 23.2ZM39.2063 11.92L40.7534 13.1874L41.8777 11.8148L40.649 10.5349L39.2063 11.92ZM12.5663 94.68C24.6871 94.68 34.7151 89.8519 42.4033 80.9033L39.3692 78.2967C32.4174 86.3881 23.4854 90.68 12.5663 90.68V94.68ZM42.4118 78.3066L33.0518 67.2666L30.0007 69.8534L39.3607 80.8934L42.4118 78.3066ZM30.0619 67.1978C25.5115 72.0894 20.1264 75.32 13.1663 75.32V79.32C21.5661 79.32 27.941 75.3506 32.9906 69.9222L30.0619 67.1978ZM13.1663 75.32C6.7614 75.32 1.56568 72.6945 -2.08469 67.8771C-5.7788 63.002 -7.99375 55.7325 -7.99375 46.36H-11.9937C-11.9937 56.3075 -9.64869 64.518 -5.2728 70.2929C-0.853176 76.1255 5.53111 79.32 13.1663 79.32V75.32ZM-7.99375 46.36C-7.99375 37.1573 -5.56299 29.9819 -1.71027 25.1522C2.11718 20.3542 7.42585 17.76 13.5263 17.76V13.76C6.18665 13.76 -0.264682 16.9258 -4.83722 22.6578C-9.38451 28.3581 -11.9937 36.4827 -11.9937 46.36H-7.99375ZM13.5263 17.76C19.5384 17.76 24.2301 20.5207 28.5908 24.6519L31.3417 21.7481C26.5824 17.2393 20.9541 13.76 13.5263 13.76V17.76ZM31.5134 24.4674L40.7534 13.1874L37.6591 10.6526L28.4191 21.9326L31.5134 24.4674ZM40.649 10.5349C34.6051 4.2392 25.1122 -1.48 13.1663 -1.48V2.52C23.7803 2.52 32.2874 7.60079 37.7635 13.3051L40.649 10.5349ZM13.1663 -1.48C1.42358 -1.48 -9.43104 3.01706 -17.3422 11.3861C-25.2551 19.757 -30.1137 31.8816 -30.1137 46.96H-26.1137C-26.1137 32.7584 -21.5524 21.663 -14.4353 14.1339C-7.31645 6.60294 2.46893 2.52 13.1663 2.52V-1.48ZM-30.1137 46.96C-30.1137 62.1968 -25.4177 74.1533 -17.6363 82.3151C-9.85512 90.4766 0.858053 94.68 12.5663 94.68V90.68C1.83445 90.68 -7.79238 86.8434 -14.7412 79.5549C-21.6898 72.2667 -26.1137 61.3632 -26.1137 46.96H-30.1137ZM81.8334 94.68C99.7568 94.68 116.113 80.8057 116.113 57.4H112.113C112.113 78.6343 97.5101 90.68 81.8334 90.68V94.68ZM116.113 57.4C116.113 33.9943 99.7568 20.12 81.8334 20.12V24.12C97.5101 24.12 112.113 36.1657 112.113 57.4H116.113ZM81.8334 20.12C63.9101 20.12 47.5534 33.9943 47.5534 57.4H51.5534C51.5534 36.1657 66.1568 24.12 81.8334 24.12V20.12ZM47.5534 57.4C47.5534 80.8057 63.9101 94.68 81.8334 94.68V90.68C66.1568 90.68 51.5534 78.6343 51.5534 57.4H47.5534ZM81.8334 76.28C77.9679 76.28 75.0095 74.5958 72.9354 71.4974C70.8026 68.3114 69.5534 63.5292 69.5534 57.4H65.5534C65.5534 63.9908 66.8842 69.6486 69.6115 73.7226C72.3973 77.8842 76.579 80.28 81.8334 80.28V76.28ZM69.5534 57.4C69.5534 51.3343 70.8013 46.5488 72.9375 43.3444C75.0173 40.2248 77.9786 38.52 81.8334 38.52V34.52C76.5683 34.52 72.3896 36.9552 69.6093 41.1256C66.8856 45.2112 65.5534 50.8657 65.5534 57.4H69.5534ZM81.8334 38.52C85.6883 38.52 88.6496 40.2248 90.7293 43.3444C92.8656 46.5488 94.1134 51.3343 94.1134 57.4H98.1134C98.1134 50.8657 96.7813 45.2112 94.0575 41.1256C91.2773 36.9552 87.0986 34.52 81.8334 34.52V38.52ZM94.1134 57.4C94.1134 63.5292 92.8642 68.3114 90.7315 71.4974C88.6573 74.5958 85.699 76.28 81.8334 76.28V80.28C87.0879 80.28 91.2695 77.8842 94.0554 73.7226C96.7826 69.6486 98.1134 63.9908 98.1134 57.4H94.1134ZM128.871 91H126.871V93H128.871V91ZM146.511 91V93H148.511V91H146.511ZM146.511 44.8L145.096 43.3858L144.511 43.9716V44.8H146.511ZM169.911 91H167.911V93H169.911V91ZM187.551 91V93H189.551V91H187.551ZM144.951 32.68V34.68H145.767L146.35 34.1087L144.951 32.68ZM144.591 32.68L142.612 32.9741L142.866 34.68H144.591V32.68ZM143.271 23.8L145.249 23.5059L144.995 21.8H143.271V23.8ZM128.871 23.8V21.8H126.871V23.8H128.871ZM128.871 93H146.511V89H128.871V93ZM148.511 91V44.8H144.511V91H148.511ZM147.925 46.2142C152.796 41.343 155.771 39.24 160.431 39.24V35.24C154.05 35.24 150.065 38.417 145.096 43.3858L147.925 46.2142ZM160.431 39.24C163.351 39.24 164.97 40.0118 166.008 41.4927C167.18 43.1662 167.911 46.1406 167.911 51.28H171.911C171.911 45.9794 171.201 41.9338 169.284 39.1973C167.231 36.2682 164.11 35.24 160.431 35.24V39.24ZM167.911 51.28V91H171.911V51.28H167.911ZM169.911 93H187.551V89H169.911V93ZM189.551 91V49.12H185.551V91H189.551ZM189.551 49.12C189.551 40.4718 187.966 33.2253 184.232 28.0977C180.415 22.8545 174.568 20.12 166.791 20.12V24.12C173.533 24.12 178.067 26.4255 180.999 30.4523C184.015 34.5947 185.551 40.8482 185.551 49.12H189.551ZM166.791 20.12C156.886 20.12 149.564 25.3614 143.551 31.2513L146.35 34.1087C152.098 28.4786 158.455 24.12 166.791 24.12V20.12ZM144.951 30.68H144.591V34.68H144.951V30.68ZM146.569 32.3859L145.249 23.5059L141.292 24.0941L142.612 32.9741L146.569 32.3859ZM143.271 21.8H128.871V25.8H143.271V21.8ZM126.871 23.8V91H130.871V23.8H126.871ZM244.506 90.16L245.138 92.0574L246.853 91.4858L246.457 89.7223L244.506 90.16ZM241.626 77.32L243.577 76.8823L243.063 74.5909L240.883 75.463L241.626 77.32ZM225.906 37.72V35.72H223.906V37.72H225.906ZM242.466 37.72V39.72H244.466V37.72H242.466ZM242.466 23.8H244.466V21.8H242.466V23.8ZM225.906 23.8H223.906V25.8H225.906V23.8ZM225.906 5.68H227.906V3.68H225.906V5.68ZM211.266 5.68V3.68H209.478L209.278 5.45625L211.266 5.68ZM209.226 23.8L209.386 25.7936L211.029 25.6614L211.213 24.0238L209.226 23.8ZM198.786 24.64L198.625 22.6464L196.786 22.7945V24.64H198.786ZM198.786 37.72H196.786V39.72H198.786V37.72ZM208.266 37.72H210.266V35.72H208.266V37.72ZM230.346 94.68C236.536 94.68 241.45 93.2868 245.138 92.0574L243.873 88.2626C240.361 89.4332 235.916 90.68 230.346 90.68V94.68ZM246.457 89.7223L243.577 76.8823L239.674 77.7577L242.554 90.5977L246.457 89.7223ZM240.883 75.463C239.21 76.1323 236.835 76.76 235.026 76.76V80.76C237.536 80.76 240.442 79.9477 242.368 79.177L240.883 75.463ZM235.026 76.76C232.441 76.76 230.808 76.0028 229.76 74.7295C228.65 73.3796 227.906 71.1018 227.906 67.48H223.906C223.906 71.5382 224.721 74.9004 226.671 77.2705C228.684 79.7172 231.611 80.76 235.026 80.76V76.76ZM227.906 67.48V37.72H223.906V67.48H227.906ZM225.906 39.72H242.466V35.72H225.906V39.72ZM244.466 37.72V23.8H240.466V37.72H244.466ZM242.466 21.8H225.906V25.8H242.466V21.8ZM227.906 23.8V5.68H223.906V23.8H227.906ZM225.906 3.68H211.266V7.68H225.906V3.68ZM209.278 5.45625L207.238 23.5762L211.213 24.0238L213.253 5.90375L209.278 5.45625ZM209.065 21.8064L198.625 22.6464L198.946 26.6336L209.386 25.7936L209.065 21.8064ZM196.786 24.64V37.72H200.786V24.64H196.786ZM198.786 39.72H208.266V35.72H198.786V39.72ZM206.266 37.72V67.48H210.266V37.72H206.266ZM206.266 67.48C206.266 75.2017 207.833 82.026 211.756 86.9512C215.747 91.9608 221.91 94.68 230.346 94.68V90.68C222.821 90.68 217.944 88.2992 214.885 84.4588C211.758 80.534 210.266 74.7583 210.266 67.48H206.266ZM290.164 83.8V81.8H289.424L288.862 82.2815L290.164 83.8ZM290.644 83.8L292.617 83.4712L292.338 81.8H290.644V83.8ZM291.844 91L289.871 91.3288L290.149 93H291.844V91ZM306.244 91V93H308.244V91H306.244ZM252.364 31L251.308 29.3011L249.702 30.2992L250.609 31.959L252.364 31ZM258.724 42.64L256.969 43.599L257.95 45.3953L259.723 44.3724L258.724 42.64ZM288.724 47.92L288.935 49.9088L290.824 49.7082L290.721 47.8111L288.724 47.92ZM288.724 58.72H290.724V56.4565L288.477 56.7352L288.724 58.72ZM288.724 72.28L290.118 73.714L290.724 73.125V72.28H288.724ZM269.884 94.68C278.257 94.68 285.43 90.4919 291.465 85.3185L288.862 82.2815C283.138 87.1881 276.871 90.68 269.884 90.68V94.68ZM290.164 85.8H290.644V81.8H290.164V85.8ZM288.671 84.1288L289.871 91.3288L293.817 90.6712L292.617 83.4712L288.671 84.1288ZM291.844 93H306.244V89H291.844V93ZM308.244 91V51.76H304.244V91H308.244ZM308.244 51.76C308.244 41.7785 305.999 33.8206 301.245 28.3394C296.446 22.8074 289.373 20.12 280.444 20.12V24.12C288.554 24.12 294.382 26.5326 298.223 30.9606C302.108 35.4394 304.244 42.3015 304.244 51.76H308.244ZM280.444 20.12C269.383 20.12 259.416 24.2647 251.308 29.3011L253.419 32.6989C261.152 27.8953 270.384 24.12 280.444 24.12V20.12ZM250.609 31.959L256.969 43.599L260.479 41.681L254.119 30.041L250.609 31.959ZM259.723 44.3724C265.926 40.7936 271.53 38.28 277.204 38.28V34.28C270.398 34.28 264.001 37.2863 257.724 40.9076L259.723 44.3724ZM277.204 38.28C280.914 38.28 283.089 39.39 284.42 40.932C285.812 42.544 286.559 44.9454 286.727 48.0289L290.721 47.8111C290.529 44.2946 289.656 40.876 287.448 38.318C285.179 35.69 281.774 34.28 277.204 34.28V38.28ZM288.513 45.9312C274.869 47.3801 264.795 50.0285 258.092 54.3376C251.218 58.7566 247.964 64.8812 247.964 72.76H251.964C251.964 66.2388 254.529 61.3834 260.255 57.7024C266.152 53.9115 275.459 51.3399 288.935 49.9088L288.513 45.9312ZM247.964 72.76C247.964 78.9302 250.113 84.4292 253.995 88.3941C257.882 92.3654 263.392 94.68 269.884 94.68V90.68C264.375 90.68 259.925 88.7346 256.853 85.5959C253.774 82.4508 251.964 77.9898 251.964 72.76H247.964ZM275.644 76.88C273.318 76.88 271.597 76.3606 270.5 75.5037C269.482 74.709 268.764 73.4418 268.764 71.32H264.764C264.764 74.4782 265.905 76.991 268.038 78.6563C270.09 80.2594 272.81 80.88 275.644 80.88V76.88ZM268.764 71.32C268.764 69.0985 269.709 67.0606 272.638 65.2314C275.702 63.3182 280.845 61.713 288.97 60.7048L288.477 56.7352C280.162 57.767 274.326 59.4618 270.519 61.8386C266.579 64.2994 264.764 67.5415 264.764 71.32H268.764ZM286.724 58.72V72.28H290.724V58.72H286.724ZM287.33 70.846C283.136 74.9234 279.898 76.88 275.644 76.88V80.88C281.469 80.88 285.672 78.0366 290.118 73.714L287.33 70.846ZM374.862 84.52L376.175 86.0286L377.447 84.9215L376.571 83.4807L374.862 84.52ZM367.782 72.88L369.491 71.8407L368.281 69.8514L366.497 71.3476L367.782 72.88ZM365.502 40.96L364.201 42.4785L365.835 43.8796L367.112 42.1464L365.502 40.96ZM373.902 29.56L375.512 30.7464L376.617 29.2476L375.201 28.0389L373.902 29.56ZM352.782 94.68C360.651 94.68 369.292 92.0194 376.175 86.0286L373.549 83.0114C367.472 88.3006 359.794 90.68 352.782 90.68V94.68ZM376.571 83.4807L369.491 71.8407L366.073 73.9193L373.153 85.5593L376.571 83.4807ZM366.497 71.3476C362.992 74.2875 358.872 76.28 354.702 76.28V80.28C360.132 80.28 365.133 77.7125 369.067 74.4124L366.497 71.3476ZM354.702 76.28C350.513 76.28 346.907 74.518 344.31 71.3435C341.691 68.1426 340.022 63.4004 340.022 57.4H336.022C336.022 64.1196 337.893 69.8174 341.214 73.8765C344.557 77.9619 349.291 80.28 354.702 80.28V76.28ZM340.022 57.4C340.022 51.4548 341.663 46.7216 344.33 43.5135C346.97 40.3377 350.721 38.52 355.302 38.52V34.52C349.564 34.52 344.674 36.8423 341.254 40.9565C337.861 45.0384 336.022 50.7452 336.022 57.4H340.022ZM355.302 38.52C358.367 38.52 361.041 39.7699 364.201 42.4785L366.804 39.4415C363.244 36.3901 359.677 34.52 355.302 34.52V38.52ZM367.112 42.1464L375.512 30.7464L372.292 28.3736L363.892 39.7736L367.112 42.1464ZM375.201 28.0389C370.004 23.6026 363.199 20.12 354.342 20.12V24.12C362.045 24.12 367.96 27.1174 372.604 31.0811L375.201 28.0389ZM354.342 20.12C335.081 20.12 318.022 33.8938 318.022 57.4H322.022C322.022 36.2662 337.123 24.12 354.342 24.12V20.12ZM318.022 57.4C318.022 68.9915 321.708 78.3417 327.993 84.8045C334.278 91.2662 343.008 94.68 352.782 94.68V90.68C343.957 90.68 336.306 87.6138 330.861 82.0155C325.417 76.4183 322.022 68.1285 322.022 57.4H318.022ZM424.857 90.16L425.49 92.0574L427.204 91.4858L426.809 89.7223L424.857 90.16ZM421.977 77.32L423.929 76.8823L423.415 74.5909L421.234 75.463L421.977 77.32ZM406.257 37.72V35.72H404.257V37.72H406.257ZM422.817 37.72V39.72H424.817V37.72H422.817ZM422.817 23.8H424.817V21.8H422.817V23.8ZM406.257 23.8H404.257V25.8H406.257V23.8ZM406.257 5.68H408.257V3.68H406.257V5.68ZM391.617 5.68V3.68H389.83L389.63 5.45625L391.617 5.68ZM389.577 23.8L389.738 25.7936L391.38 25.6614L391.565 24.0238L389.577 23.8ZM379.137 24.64L378.977 22.6464L377.137 22.7945V24.64H379.137ZM379.137 37.72H377.137V39.72H379.137V37.72ZM388.617 37.72H390.617V35.72H388.617V37.72ZM410.697 94.68C416.887 94.68 421.801 93.2868 425.49 92.0574L424.225 88.2626C420.713 89.4332 416.267 90.68 410.697 90.68V94.68ZM426.809 89.7223L423.929 76.8823L420.026 77.7577L422.906 90.5977L426.809 89.7223ZM421.234 75.463C419.561 76.1323 417.187 76.76 415.377 76.76V80.76C417.888 80.76 420.793 79.9477 422.72 79.177L421.234 75.463ZM415.377 76.76C412.792 76.76 411.159 76.0028 410.112 74.7295C409.001 73.3796 408.257 71.1018 408.257 67.48H404.257C404.257 71.5382 405.073 74.9004 407.023 77.2705C409.035 79.7172 411.962 80.76 415.377 80.76V76.76ZM408.257 67.48V37.72H404.257V67.48H408.257ZM406.257 39.72H422.817V35.72H406.257V39.72ZM424.817 37.72V23.8H420.817V37.72H424.817ZM422.817 21.8H406.257V25.8H422.817V21.8ZM408.257 23.8V5.68H404.257V23.8H408.257ZM406.257 3.68H391.617V7.68H406.257V3.68ZM389.63 5.45625L387.59 23.5762L391.565 24.0238L393.605 5.90375L389.63 5.45625ZM389.417 21.8064L378.977 22.6464L379.298 26.6336L389.738 25.7936L389.417 21.8064ZM377.137 24.64V37.72H381.137V24.64H377.137ZM379.137 39.72H388.617V35.72H379.137V39.72ZM386.617 37.72V67.48H390.617V37.72H386.617ZM386.617 67.48C386.617 75.2017 388.184 82.026 392.108 86.9512C396.099 91.9608 402.262 94.68 410.697 94.68V90.68C403.173 90.68 398.296 88.2992 395.237 84.4588C392.11 80.534 390.617 74.7583 390.617 67.48H386.617ZM465.115 91H463.115V93H465.115V91ZM481.075 91V93H483.075V91H481.075ZM478.795 24.76V22.76H476.585L476.805 24.959L478.795 24.76ZM479.275 24.76L481.169 24.1178L480.709 22.76H479.275V24.76ZM486.355 45.64L484.461 46.2822L484.47 46.3081L484.479 46.3336L486.355 45.64ZM500.155 82.96L498.279 83.6536L498.763 84.96H500.155V82.96ZM510.355 82.96V84.96H511.752L512.233 83.6483L510.355 82.96ZM524.035 45.64L525.913 46.3283L525.92 46.3102L525.926 46.292L524.035 45.64ZM531.235 24.76V22.76H529.809L529.345 24.108L531.235 24.76ZM531.835 24.76L533.822 24.9871L534.077 22.76H531.835V24.76ZM529.555 91H527.555V93H529.555V91ZM545.755 91V93H547.755V91H545.755ZM545.755 2.07999H547.755V0.0799932H545.755V2.07999ZM526.075 2.07999V0.0799932H524.662L524.19 1.4118L526.075 2.07999ZM511.315 43.72L509.43 43.0518L509.426 43.063L511.315 43.72ZM505.915 60.76V62.76H507.347L507.809 61.4045L505.915 60.76ZM505.315 60.76L503.41 61.3681L503.854 62.76H505.315V60.76ZM499.915 43.72L501.804 43.063L501.8 43.0501L501.795 43.0374L499.915 43.72ZM484.795 2.07999L486.675 1.39738L486.197 0.0799932H484.795V2.07999ZM465.115 2.07999V0.0799932H463.115V2.07999H465.115ZM465.115 93H481.075V89H465.115V93ZM483.075 91V53.92H479.075V91H483.075ZM483.075 53.92C483.075 45.3898 481.617 32.8805 480.785 24.561L476.805 24.959C477.653 33.4394 479.075 45.6502 479.075 53.92H483.075ZM478.795 26.76H479.275V22.76H478.795V26.76ZM477.381 25.4022L484.461 46.2822L488.249 44.9978L481.169 24.1178L477.381 25.4022ZM484.479 46.3336L498.279 83.6536L502.031 82.2664L488.231 44.9464L484.479 46.3336ZM500.155 84.96H510.355V80.96H500.155V84.96ZM512.233 83.6483L525.913 46.3283L522.157 44.9517L508.477 82.2717L512.233 83.6483ZM525.926 46.292L533.126 25.412L529.345 24.108L522.145 44.988L525.926 46.292ZM531.235 26.76H531.835V22.76H531.235V26.76ZM529.848 24.5329C528.891 32.9094 527.555 45.3856 527.555 53.92H531.555C531.555 45.6544 532.86 33.4106 533.822 24.9871L529.848 24.5329ZM527.555 53.92V91H531.555V53.92H527.555ZM529.555 93H545.755V89H529.555V93ZM547.755 91V2.07999H543.755V91H547.755ZM545.755 0.0799932H526.075V4.07999H545.755V0.0799932ZM524.19 1.4118L509.43 43.0518L513.2 44.3882L527.96 2.74819L524.19 1.4118ZM509.426 43.063C508.451 45.8662 507.57 48.7531 506.702 51.6139C505.829 54.4872 504.969 57.3332 504.022 60.1155L507.809 61.4045C508.781 58.5468 509.662 55.6328 510.529 52.7761C511.4 49.9069 512.259 47.0938 513.204 44.377L509.426 43.063ZM505.915 58.76H505.315V62.76H505.915V58.76ZM507.221 60.1519C505.449 54.6007 503.733 48.607 501.804 43.063L498.026 44.377C499.938 49.873 501.582 55.6393 503.41 61.3681L507.221 60.1519ZM501.795 43.0374L486.675 1.39738L482.915 2.76261L498.035 44.4026L501.795 43.0374ZM484.795 0.0799932H465.115V4.07999H484.795V0.0799932ZM463.115 2.07999V91H467.115V2.07999H463.115ZM618.777 85.24L619.914 86.8855L621.406 85.8544L620.526 84.2687L618.777 85.24ZM612.777 74.44L614.526 73.4687L613.503 71.628L611.717 72.744L612.777 74.44ZM579.057 62.32V60.32H576.779L577.074 62.5787L579.057 62.32ZM620.457 62.32V64.32H621.934L622.369 62.9082L620.457 62.32ZM578.817 50.56L576.835 50.2909L576.527 52.56H578.817V50.56ZM606.177 50.56V52.56H608.177V50.56H606.177ZM595.377 94.68C604.092 94.68 613.004 91.6595 619.914 86.8855L617.64 83.5945C611.35 87.9405 603.222 90.68 595.377 90.68V94.68ZM620.526 84.2687L614.526 73.4687L611.029 75.4113L617.029 86.2113L620.526 84.2687ZM611.717 72.744C607.161 75.5913 602.724 77.12 597.657 77.12V81.12C603.63 81.12 608.793 79.2887 613.837 76.136L611.717 72.744ZM597.657 77.12C593.067 77.12 589.274 75.7984 586.479 73.3544C583.687 70.9132 581.71 67.1938 581.04 62.0613L577.074 62.5787C577.845 68.4862 580.188 73.1668 583.846 76.3656C587.501 79.5616 592.288 81.12 597.657 81.12V77.12ZM579.057 64.32H620.457V60.32H579.057V64.32ZM622.369 62.9082C622.937 61.0602 623.297 57.5821 623.297 54.16H619.297C619.297 57.4579 618.937 60.4598 618.546 61.7318L622.369 62.9082ZM623.297 54.16C623.297 44.5977 620.815 36.0909 615.729 29.936C610.601 23.7302 602.991 20.12 593.217 20.12V24.12C601.923 24.12 608.353 27.2897 612.645 32.484C616.98 37.7291 619.297 45.2423 619.297 54.16H623.297ZM593.217 20.12C576.068 20.12 559.897 34.6616 559.897 57.4H563.897C563.897 36.6983 578.446 24.12 593.217 24.12V20.12ZM559.897 57.4C559.897 68.9532 563.716 78.3056 570.154 84.7757C576.587 91.24 585.487 94.68 595.377 94.68V90.68C586.427 90.68 578.588 87.58 572.99 81.9543C567.398 76.3344 563.897 68.0468 563.897 57.4H559.897ZM580.799 50.8291C581.408 46.3431 583.127 43.0978 585.353 40.9862C587.576 38.8785 590.407 37.8 593.457 37.8V33.8C589.427 33.8 585.598 35.2415 582.601 38.0838C579.608 40.9222 577.546 45.0569 576.835 50.2909L580.799 50.8291ZM593.457 37.8C597.299 37.8 599.86 39.0576 601.51 41.072C603.213 43.1522 604.177 46.3249 604.177 50.56H608.177C608.177 45.7951 607.102 41.5878 604.605 38.538C602.054 35.4224 598.255 33.8 593.457 33.8V37.8ZM606.177 48.56H578.817V52.56H606.177V48.56ZM729.011 79.6L730.528 80.9033L731.641 79.6086L730.537 78.3066L729.011 79.6ZM719.651 68.56L721.177 67.2666L719.721 65.5491L718.187 67.1978L719.651 68.56ZM718.091 23.2L716.716 24.6519L718.276 26.1303L719.638 24.4674L718.091 23.2ZM727.331 11.92L728.878 13.1874L730.003 11.8148L728.774 10.5349L727.331 11.92ZM700.691 94.68C712.812 94.68 722.84 89.8519 730.528 80.9033L727.494 78.2967C720.542 86.3881 711.61 90.68 700.691 90.68V94.68ZM730.537 78.3066L721.177 67.2666L718.126 69.8534L727.486 80.8934L730.537 78.3066ZM718.187 67.1978C713.637 72.0894 708.251 75.32 701.291 75.32V79.32C709.691 79.32 716.066 75.3506 721.116 69.9222L718.187 67.1978ZM701.291 75.32C694.886 75.32 689.691 72.6945 686.04 67.8771C682.346 63.002 680.131 55.7325 680.131 46.36H676.131C676.131 56.3075 678.476 64.518 682.852 70.2929C687.272 76.1255 693.656 79.32 701.291 79.32V75.32ZM680.131 46.36C680.131 37.1573 682.562 29.9819 686.415 25.1522C690.242 20.3542 695.551 17.76 701.651 17.76V13.76C694.312 13.76 687.86 16.9258 683.288 22.6578C678.74 28.3581 676.131 36.4827 676.131 46.36H680.131ZM701.651 17.76C707.663 17.76 712.355 20.5207 716.716 24.6519L719.467 21.7481C714.707 17.2393 709.079 13.76 701.651 13.76V17.76ZM719.638 24.4674L728.878 13.1874L725.784 10.6526L716.544 21.9326L719.638 24.4674ZM728.774 10.5349C722.73 4.2392 713.237 -1.48 701.291 -1.48V2.52C711.905 2.52 720.412 7.60079 725.888 13.3051L728.774 10.5349ZM701.291 -1.48C689.549 -1.48 678.694 3.01706 670.783 11.3861C662.87 19.757 658.011 31.8816 658.011 46.96H662.011C662.011 32.7584 666.573 21.663 673.69 14.1339C680.809 6.60294 690.594 2.52 701.291 2.52V-1.48ZM658.011 46.96C658.011 62.1968 662.707 74.1533 670.489 82.3151C678.27 90.4766 688.983 94.68 700.691 94.68V90.68C689.959 90.68 680.333 86.8434 673.384 79.5549C666.435 72.2667 662.011 61.3632 662.011 46.96H658.011ZM769.958 94.68C787.882 94.68 804.238 80.8057 804.238 57.4H800.238C800.238 78.6343 785.635 90.68 769.958 90.68V94.68ZM804.238 57.4C804.238 33.9943 787.882 20.12 769.958 20.12V24.12C785.635 24.12 800.238 36.1657 800.238 57.4H804.238ZM769.958 20.12C752.035 20.12 735.678 33.9943 735.678 57.4H739.678C739.678 36.1657 754.282 24.12 769.958 24.12V20.12ZM735.678 57.4C735.678 80.8057 752.035 94.68 769.958 94.68V90.68C754.282 90.68 739.678 78.6343 739.678 57.4H735.678ZM769.958 76.28C766.093 76.28 763.135 74.5958 761.06 71.4974C758.928 68.3114 757.678 63.5292 757.678 57.4H753.678C753.678 63.9908 755.009 69.6486 757.736 73.7226C760.522 77.8842 764.704 80.28 769.958 80.28V76.28ZM757.678 57.4C757.678 51.3343 758.926 46.5488 761.063 43.3444C763.142 40.2248 766.104 38.52 769.958 38.52V34.52C764.693 34.52 760.515 36.9552 757.734 41.1256C755.011 45.2112 753.678 50.8657 753.678 57.4H757.678ZM769.958 38.52C773.813 38.52 776.775 40.2248 778.854 43.3444C780.991 46.5488 782.238 51.3343 782.238 57.4H786.238C786.238 50.8657 784.906 45.2112 782.183 41.1256C779.402 36.9552 775.224 34.52 769.958 34.52V38.52ZM782.238 57.4C782.238 63.5292 780.989 68.3114 778.856 71.4974C776.782 74.5958 773.824 76.28 769.958 76.28V80.28C775.213 80.28 779.395 77.8842 782.18 73.7226C784.908 69.6486 786.238 63.9908 786.238 57.4H782.238ZM816.996 91H814.996V93H816.996V91ZM834.636 91V93H836.636V91H834.636ZM834.636 44.8L833.221 43.3858L832.636 43.9716V44.8H834.636ZM858.036 91H856.036V93H858.036V91ZM875.676 91V93H877.676V91H875.676ZM833.076 32.68V34.68H833.892L834.475 34.1087L833.076 32.68ZM832.716 32.68L830.737 32.9741L830.991 34.68H832.716V32.68ZM831.396 23.8L833.374 23.5059L833.12 21.8H831.396V23.8ZM816.996 23.8V21.8H814.996V23.8H816.996ZM816.996 93H834.636V89H816.996V93ZM836.636 91V44.8H832.636V91H836.636ZM836.05 46.2142C840.921 41.343 843.896 39.24 848.556 39.24V35.24C842.175 35.24 838.19 38.417 833.221 43.3858L836.05 46.2142ZM848.556 39.24C851.476 39.24 853.095 40.0118 854.133 41.4927C855.305 43.1662 856.036 46.1406 856.036 51.28H860.036C860.036 45.9794 859.326 41.9338 857.409 39.1973C855.356 36.2682 852.235 35.24 848.556 35.24V39.24ZM856.036 51.28V91H860.036V51.28H856.036ZM858.036 93H875.676V89H858.036V93ZM877.676 91V49.12H873.676V91H877.676ZM877.676 49.12C877.676 40.4718 876.091 33.2253 872.357 28.0977C868.54 22.8545 862.693 20.12 854.916 20.12V24.12C861.658 24.12 866.192 26.4255 869.124 30.4523C872.14 34.5947 873.676 40.8482 873.676 49.12H877.676ZM854.916 20.12C845.011 20.12 837.689 25.3614 831.676 31.2513L834.475 34.1087C840.223 28.4786 846.58 24.12 854.916 24.12V20.12ZM833.076 30.68H832.716V34.68H833.076V30.68ZM834.694 32.3859L833.374 23.5059L829.417 24.0941L830.737 32.9741L834.694 32.3859ZM831.396 21.8H816.996V25.8H831.396V21.8ZM814.996 23.8V91H818.996V23.8H814.996ZM932.631 90.16L933.263 92.0574L934.978 91.4858L934.582 89.7223L932.631 90.16ZM929.751 77.32L931.702 76.8823L931.188 74.5909L929.008 75.463L929.751 77.32ZM914.031 37.72V35.72H912.031V37.72H914.031ZM930.591 37.72V39.72H932.591V37.72H930.591ZM930.591 23.8H932.591V21.8H930.591V23.8ZM914.031 23.8H912.031V25.8H914.031V23.8ZM914.031 5.68H916.031V3.68H914.031V5.68ZM899.391 5.68V3.68H897.603L897.403 5.45625L899.391 5.68ZM897.351 23.8L897.511 25.7936L899.154 25.6614L899.338 24.0238L897.351 23.8ZM886.911 24.64L886.75 22.6464L884.911 22.7945V24.64H886.911ZM886.911 37.72H884.911V39.72H886.911V37.72ZM896.391 37.72H898.391V35.72H896.391V37.72ZM918.471 94.68C924.661 94.68 929.575 93.2868 933.263 92.0574L931.998 88.2626C928.486 89.4332 924.041 90.68 918.471 90.68V94.68ZM934.582 89.7223L931.702 76.8823L927.799 77.7577L930.679 90.5977L934.582 89.7223ZM929.008 75.463C927.335 76.1323 924.96 76.76 923.151 76.76V80.76C925.661 80.76 928.567 79.9477 930.493 79.177L929.008 75.463ZM923.151 76.76C920.566 76.76 918.933 76.0028 917.885 74.7295C916.775 73.3796 916.031 71.1018 916.031 67.48H912.031C912.031 71.5382 912.846 74.9004 914.796 77.2705C916.809 79.7172 919.736 80.76 923.151 80.76V76.76ZM916.031 67.48V37.72H912.031V67.48H916.031ZM914.031 39.72H930.591V35.72H914.031V39.72ZM932.591 37.72V23.8H928.591V37.72H932.591ZM930.591 21.8H914.031V25.8H930.591V21.8ZM916.031 23.8V5.68H912.031V23.8H916.031ZM914.031 3.68H899.391V7.68H914.031V3.68ZM897.403 5.45625L895.363 23.5762L899.338 24.0238L901.378 5.90375L897.403 5.45625ZM897.19 21.8064L886.75 22.6464L887.071 26.6336L897.511 25.7936L897.19 21.8064ZM884.911 24.64V37.72H888.911V24.64H884.911ZM886.911 39.72H896.391V35.72H886.911V39.72ZM894.391 37.72V67.48H898.391V37.72H894.391ZM894.391 67.48C894.391 75.2017 895.958 82.026 899.881 86.9512C903.872 91.9608 910.035 94.68 918.471 94.68V90.68C910.946 90.68 906.069 88.2992 903.01 84.4588C899.883 80.534 898.391 74.7583 898.391 67.48H894.391ZM978.289 83.8V81.8H977.549L976.987 82.2815L978.289 83.8ZM978.769 83.8L980.742 83.4712L980.463 81.8H978.769V83.8ZM979.969 91L977.996 91.3288L978.274 93H979.969V91ZM994.369 91V93H996.369V91H994.369ZM940.489 31L939.433 29.3011L937.827 30.2992L938.734 31.959L940.489 31ZM946.849 42.64L945.094 43.599L946.075 45.3953L947.848 44.3724L946.849 42.64ZM976.849 47.92L977.06 49.9088L978.949 49.7082L978.846 47.8111L976.849 47.92ZM976.849 58.72H978.849V56.4565L976.602 56.7352L976.849 58.72ZM976.849 72.28L978.243 73.714L978.849 73.125V72.28H976.849ZM958.009 94.68C966.382 94.68 973.555 90.4919 979.59 85.3185L976.987 82.2815C971.263 87.1881 964.996 90.68 958.009 90.68V94.68ZM978.289 85.8H978.769V81.8H978.289V85.8ZM976.796 84.1288L977.996 91.3288L981.942 90.6712L980.742 83.4712L976.796 84.1288ZM979.969 93H994.369V89H979.969V93ZM996.369 91V51.76H992.369V91H996.369ZM996.369 51.76C996.369 41.7785 994.124 33.8206 989.37 28.3394C984.571 22.8074 977.498 20.12 968.569 20.12V24.12C976.679 24.12 982.507 26.5326 986.348 30.9606C990.233 35.4394 992.369 42.3015 992.369 51.76H996.369ZM968.569 20.12C957.508 20.12 947.541 24.2647 939.433 29.3011L941.544 32.6989C949.277 27.8953 958.509 24.12 968.569 24.12V20.12ZM938.734 31.959L945.094 43.599L948.604 41.681L942.244 30.041L938.734 31.959ZM947.848 44.3724C954.051 40.7936 959.655 38.28 965.329 38.28V34.28C958.523 34.28 952.126 37.2863 945.849 40.9076L947.848 44.3724ZM965.329 38.28C969.039 38.28 971.214 39.39 972.545 40.932C973.937 42.544 974.684 44.9454 974.852 48.0289L978.846 47.8111C978.654 44.2946 977.781 40.876 975.573 38.318C973.304 35.69 969.899 34.28 965.329 34.28V38.28ZM976.638 45.9312C962.994 47.3801 952.92 50.0285 946.217 54.3376C939.343 58.7566 936.089 64.8812 936.089 72.76H940.089C940.089 66.2388 942.654 61.3834 948.38 57.7024C954.277 53.9115 963.584 51.3399 977.06 49.9088L976.638 45.9312ZM936.089 72.76C936.089 78.9302 938.238 84.4292 942.12 88.3941C946.007 92.3654 951.517 94.68 958.009 94.68V90.68C952.5 90.68 948.05 88.7346 944.978 85.5959C941.899 82.4508 940.089 77.9898 940.089 72.76H936.089ZM963.769 76.88C961.443 76.88 959.722 76.3606 958.625 75.5037C957.607 74.709 956.889 73.4418 956.889 71.32H952.889C952.889 74.4782 954.03 76.991 956.163 78.6563C958.215 80.2594 960.935 80.88 963.769 80.88V76.88ZM956.889 71.32C956.889 69.0985 957.834 67.0606 960.763 65.2314C963.827 63.3182 968.97 61.713 977.095 60.7048L976.602 56.7352C968.287 57.767 962.451 59.4618 958.644 61.8386C954.704 64.2994 952.889 67.5415 952.889 71.32H956.889ZM974.849 58.72V72.28H978.849V58.72H974.849ZM975.455 70.846C971.261 74.9234 968.023 76.88 963.769 76.88V80.88C969.594 80.88 973.797 78.0366 978.243 73.714L975.455 70.846ZM1062.99 84.52L1064.3 86.0286L1065.57 84.9215L1064.7 83.4807L1062.99 84.52ZM1055.91 72.88L1057.62 71.8407L1056.41 69.8514L1054.62 71.3476L1055.91 72.88ZM1053.63 40.96L1052.33 42.4785L1053.96 43.8796L1055.24 42.1464L1053.63 40.96ZM1062.03 29.56L1063.64 30.7464L1064.74 29.2476L1063.33 28.0389L1062.03 29.56ZM1040.91 94.68C1048.78 94.68 1057.42 92.0194 1064.3 86.0286L1061.67 83.0114C1055.6 88.3006 1047.92 90.68 1040.91 90.68V94.68ZM1064.7 83.4807L1057.62 71.8407L1054.2 73.9193L1061.28 85.5593L1064.7 83.4807ZM1054.62 71.3476C1051.12 74.2875 1047 76.28 1042.83 76.28V80.28C1048.26 80.28 1053.26 77.7125 1057.19 74.4124L1054.62 71.3476ZM1042.83 76.28C1038.64 76.28 1035.03 74.518 1032.44 71.3435C1029.82 68.1426 1028.15 63.4004 1028.15 57.4H1024.15C1024.15 64.1196 1026.02 69.8174 1029.34 73.8765C1032.68 77.9619 1037.42 80.28 1042.83 80.28V76.28ZM1028.15 57.4C1028.15 51.4548 1029.79 46.7216 1032.46 43.5135C1035.1 40.3377 1038.85 38.52 1043.43 38.52V34.52C1037.69 34.52 1032.8 36.8423 1029.38 40.9565C1025.99 45.0384 1024.15 50.7452 1024.15 57.4H1028.15ZM1043.43 38.52C1046.49 38.52 1049.17 39.7699 1052.33 42.4785L1054.93 39.4415C1051.37 36.3901 1047.8 34.52 1043.43 34.52V38.52ZM1055.24 42.1464L1063.64 30.7464L1060.42 28.3736L1052.02 39.7736L1055.24 42.1464ZM1063.33 28.0389C1058.13 23.6026 1051.32 20.12 1042.47 20.12V24.12C1050.17 24.12 1056.09 27.1174 1060.73 31.0811L1063.33 28.0389ZM1042.47 20.12C1023.21 20.12 1006.15 33.8938 1006.15 57.4H1010.15C1010.15 36.2662 1025.25 24.12 1042.47 24.12V20.12ZM1006.15 57.4C1006.15 68.9915 1009.83 78.3417 1016.12 84.8045C1022.4 91.2662 1031.13 94.68 1040.91 94.68V90.68C1032.08 90.68 1024.43 87.6138 1018.99 82.0155C1013.54 76.4183 1010.15 68.1285 1010.15 57.4H1006.15ZM1112.98 90.16L1113.61 92.0574L1115.33 91.4858L1114.93 89.7223L1112.98 90.16ZM1110.1 77.32L1112.05 76.8823L1111.54 74.5909L1109.36 75.463L1110.1 77.32ZM1094.38 37.72V35.72H1092.38V37.72H1094.38ZM1110.94 37.72V39.72H1112.94V37.72H1110.94ZM1110.94 23.8H1112.94V21.8H1110.94V23.8ZM1094.38 23.8H1092.38V25.8H1094.38V23.8ZM1094.38 5.68H1096.38V3.68H1094.38V5.68ZM1079.74 5.68V3.68H1077.95L1077.75 5.45625L1079.74 5.68ZM1077.7 23.8L1077.86 25.7936L1079.51 25.6614L1079.69 24.0238L1077.7 23.8ZM1067.26 24.64L1067.1 22.6464L1065.26 22.7945V24.64H1067.26ZM1067.26 37.72H1065.26V39.72H1067.26V37.72ZM1076.74 37.72H1078.74V35.72H1076.74V37.72ZM1098.82 94.68C1105.01 94.68 1109.93 93.2868 1113.61 92.0574L1112.35 88.2626C1108.84 89.4332 1104.39 90.68 1098.82 90.68V94.68ZM1114.93 89.7223L1112.05 76.8823L1108.15 77.7577L1111.03 90.5977L1114.93 89.7223ZM1109.36 75.463C1107.69 76.1323 1105.31 76.76 1103.5 76.76V80.76C1106.01 80.76 1108.92 79.9477 1110.84 79.177L1109.36 75.463ZM1103.5 76.76C1100.92 76.76 1099.28 76.0028 1098.24 74.7295C1097.13 73.3796 1096.38 71.1018 1096.38 67.48H1092.38C1092.38 71.5382 1093.2 74.9004 1095.15 77.2705C1097.16 79.7172 1100.09 80.76 1103.5 80.76V76.76ZM1096.38 67.48V37.72H1092.38V67.48H1096.38ZM1094.38 39.72H1110.94V35.72H1094.38V39.72ZM1112.94 37.72V23.8H1108.94V37.72H1112.94ZM1110.94 21.8H1094.38V25.8H1110.94V21.8ZM1096.38 23.8V5.68H1092.38V23.8H1096.38ZM1094.38 3.68H1079.74V7.68H1094.38V3.68ZM1077.75 5.45625L1075.71 23.5762L1079.69 24.0238L1081.73 5.90375L1077.75 5.45625ZM1077.54 21.8064L1067.1 22.6464L1067.42 26.6336L1077.86 25.7936L1077.54 21.8064ZM1065.26 24.64V37.72H1069.26V24.64H1065.26ZM1067.26 39.72H1076.74V35.72H1067.26V39.72ZM1074.74 37.72V67.48H1078.74V37.72H1074.74ZM1074.74 67.48C1074.74 75.2017 1076.31 82.026 1080.23 86.9512C1084.22 91.9608 1090.39 94.68 1098.82 94.68V90.68C1091.3 90.68 1086.42 88.2992 1083.36 84.4588C1080.23 80.534 1078.74 74.7583 1078.74 67.48H1074.74ZM1153.24 91H1151.24V93H1153.24V91ZM1169.2 91V93H1171.2V91H1169.2ZM1166.92 24.76V22.76H1164.71L1164.93 24.959L1166.92 24.76ZM1167.4 24.76L1169.29 24.1178L1168.83 22.76H1167.4V24.76ZM1174.48 45.64L1172.59 46.2822L1172.59 46.3081L1172.6 46.3336L1174.48 45.64ZM1188.28 82.96L1186.4 83.6536L1186.89 84.96H1188.28V82.96ZM1198.48 82.96V84.96H1199.88L1200.36 83.6483L1198.48 82.96ZM1212.16 45.64L1214.04 46.3283L1214.04 46.3102L1214.05 46.292L1212.16 45.64ZM1219.36 24.76V22.76H1217.93L1217.47 24.108L1219.36 24.76ZM1219.96 24.76L1221.95 24.9871L1222.2 22.76H1219.96V24.76ZM1217.68 91H1215.68V93H1217.68V91ZM1233.88 91V93H1235.88V91H1233.88ZM1233.88 2.07999H1235.88V0.0799932H1233.88V2.07999ZM1214.2 2.07999V0.0799932H1212.79L1212.32 1.4118L1214.2 2.07999ZM1199.44 43.72L1197.56 43.0518L1197.55 43.063L1199.44 43.72ZM1194.04 60.76V62.76H1195.47L1195.93 61.4045L1194.04 60.76ZM1193.44 60.76L1191.53 61.3681L1191.98 62.76H1193.44V60.76ZM1188.04 43.72L1189.93 43.063L1189.92 43.0501L1189.92 43.0374L1188.04 43.72ZM1172.92 2.07999L1174.8 1.39738L1174.32 0.0799932H1172.92V2.07999ZM1153.24 2.07999V0.0799932H1151.24V2.07999H1153.24ZM1153.24 93H1169.2V89H1153.24V93ZM1171.2 91V53.92H1167.2V91H1171.2ZM1171.2 53.92C1171.2 45.3898 1169.74 32.8805 1168.91 24.561L1164.93 24.959C1165.78 33.4394 1167.2 45.6502 1167.2 53.92H1171.2ZM1166.92 26.76H1167.4V22.76H1166.92V26.76ZM1165.51 25.4022L1172.59 46.2822L1176.37 44.9978L1169.29 24.1178L1165.51 25.4022ZM1172.6 46.3336L1186.4 83.6536L1190.16 82.2664L1176.36 44.9464L1172.6 46.3336ZM1188.28 84.96H1198.48V80.96H1188.28V84.96ZM1200.36 83.6483L1214.04 46.3283L1210.28 44.9517L1196.6 82.2717L1200.36 83.6483ZM1214.05 46.292L1221.25 25.412L1217.47 24.108L1210.27 44.988L1214.05 46.292ZM1219.36 26.76H1219.96V22.76H1219.36V26.76ZM1217.97 24.5329C1217.02 32.9094 1215.68 45.3856 1215.68 53.92H1219.68C1219.68 45.6544 1220.98 33.4106 1221.95 24.9871L1217.97 24.5329ZM1215.68 53.92V91H1219.68V53.92H1215.68ZM1217.68 93H1233.88V89H1217.68V93ZM1235.88 91V2.07999H1231.88V91H1235.88ZM1233.88 0.0799932H1214.2V4.07999H1233.88V0.0799932ZM1212.32 1.4118L1197.56 43.0518L1201.33 44.3882L1216.09 2.74819L1212.32 1.4118ZM1197.55 43.063C1196.58 45.8662 1195.7 48.7531 1194.83 51.6139C1193.95 54.4872 1193.09 57.3332 1192.15 60.1155L1195.93 61.4045C1196.91 58.5468 1197.79 55.6328 1198.65 52.7761C1199.53 49.9069 1200.38 47.0938 1201.33 44.377L1197.55 43.063ZM1194.04 58.76H1193.44V62.76H1194.04V58.76ZM1195.35 60.1519C1193.57 54.6007 1191.86 48.607 1189.93 43.063L1186.15 44.377C1188.06 49.873 1189.71 55.6393 1191.53 61.3681L1195.35 60.1519ZM1189.92 43.0374L1174.8 1.39738L1171.04 2.76261L1186.16 44.4026L1189.92 43.0374ZM1172.92 0.0799932H1153.24V4.07999H1172.92V0.0799932ZM1151.24 2.07999V91H1155.24V2.07999H1151.24ZM1306.9 85.24L1308.04 86.8855L1309.53 85.8544L1308.65 84.2687L1306.9 85.24ZM1300.9 74.44L1302.65 73.4687L1301.63 71.628L1299.84 72.744L1300.9 74.44ZM1267.18 62.32V60.32H1264.9L1265.2 62.5787L1267.18 62.32ZM1308.58 62.32V64.32H1310.06L1310.49 62.9082L1308.58 62.32ZM1266.94 50.56L1264.96 50.2909L1264.65 52.56H1266.94V50.56ZM1294.3 50.56V52.56H1296.3V50.56H1294.3ZM1283.5 94.68C1292.22 94.68 1301.13 91.6595 1308.04 86.8855L1305.77 83.5945C1299.48 87.9405 1291.35 90.68 1283.5 90.68V94.68ZM1308.65 84.2687L1302.65 73.4687L1299.15 75.4113L1305.15 86.2113L1308.65 84.2687ZM1299.84 72.744C1295.29 75.5913 1290.85 77.12 1285.78 77.12V81.12C1291.76 81.12 1296.92 79.2887 1301.96 76.136L1299.84 72.744ZM1285.78 77.12C1281.19 77.12 1277.4 75.7984 1274.6 73.3544C1271.81 70.9132 1269.83 67.1938 1269.17 62.0613L1265.2 62.5787C1265.97 68.4862 1268.31 73.1668 1271.97 76.3656C1275.63 79.5616 1280.41 81.12 1285.78 81.12V77.12ZM1267.18 64.32H1308.58V60.32H1267.18V64.32ZM1310.49 62.9082C1311.06 61.0602 1311.42 57.5821 1311.42 54.16H1307.42C1307.42 57.4579 1307.06 60.4598 1306.67 61.7318L1310.49 62.9082ZM1311.42 54.16C1311.42 44.5977 1308.94 36.0909 1303.85 29.936C1298.73 23.7302 1291.12 20.12 1281.34 20.12V24.12C1290.05 24.12 1296.48 27.2897 1300.77 32.484C1305.1 37.7291 1307.42 45.2423 1307.42 54.16H1311.42ZM1281.34 20.12C1264.19 20.12 1248.02 34.6616 1248.02 57.4H1252.02C1252.02 36.6983 1266.57 24.12 1281.34 24.12V20.12ZM1248.02 57.4C1248.02 68.9532 1251.84 78.3056 1258.28 84.7757C1264.71 91.24 1273.61 94.68 1283.5 94.68V90.68C1274.55 90.68 1266.71 87.58 1261.11 81.9543C1255.52 76.3344 1252.02 68.0468 1252.02 57.4H1248.02ZM1268.92 50.8291C1269.53 46.3431 1271.25 43.0978 1273.48 40.9862C1275.7 38.8785 1278.53 37.8 1281.58 37.8V33.8C1277.55 33.8 1273.72 35.2415 1270.73 38.0838C1267.73 40.9222 1265.67 45.0569 1264.96 50.2909L1268.92 50.8291ZM1281.58 37.8C1285.42 37.8 1287.99 39.0576 1289.63 41.072C1291.34 43.1522 1292.3 46.3249 1292.3 50.56H1296.3C1296.3 45.7951 1295.23 41.5878 1292.73 38.538C1290.18 35.4224 1286.38 33.8 1281.58 33.8V37.8ZM1294.3 48.56H1266.94V52.56H1294.3V48.56ZM1417.14 79.6L1418.65 80.9033L1419.77 79.6086L1418.66 78.3066L1417.14 79.6ZM1407.78 68.56L1409.3 67.2666L1407.85 65.5491L1406.31 67.1978L1407.78 68.56ZM1406.22 23.2L1404.84 24.6519L1406.4 26.1303L1407.76 24.4674L1406.22 23.2ZM1415.46 11.92L1417 13.1874L1418.13 11.8148L1416.9 10.5349L1415.46 11.92ZM1388.82 94.68C1400.94 94.68 1410.97 89.8519 1418.65 80.9033L1415.62 78.2967C1408.67 86.3881 1399.74 90.68 1388.82 90.68V94.68ZM1418.66 78.3066L1409.3 67.2666L1406.25 69.8534L1415.61 80.8934L1418.66 78.3066ZM1406.31 67.1978C1401.76 72.0894 1396.38 75.32 1389.42 75.32V79.32C1397.82 79.32 1404.19 75.3506 1409.24 69.9222L1406.31 67.1978ZM1389.42 75.32C1383.01 75.32 1377.82 72.6945 1374.17 67.8771C1370.47 63.002 1368.26 55.7325 1368.26 46.36H1364.26C1364.26 56.3075 1366.6 64.518 1370.98 70.2929C1375.4 76.1255 1381.78 79.32 1389.42 79.32V75.32ZM1368.26 46.36C1368.26 37.1573 1370.69 29.9819 1374.54 25.1522C1378.37 20.3542 1383.68 17.76 1389.78 17.76V13.76C1382.44 13.76 1375.99 16.9258 1371.41 22.6578C1366.87 28.3581 1364.26 36.4827 1364.26 46.36H1368.26ZM1389.78 17.76C1395.79 17.76 1400.48 20.5207 1404.84 24.6519L1407.59 21.7481C1402.83 17.2393 1397.2 13.76 1389.78 13.76V17.76ZM1407.76 24.4674L1417 13.1874L1413.91 10.6526L1404.67 21.9326L1407.76 24.4674ZM1416.9 10.5349C1410.86 4.2392 1401.36 -1.48 1389.42 -1.48V2.52C1400.03 2.52 1408.54 7.60079 1414.01 13.3051L1416.9 10.5349ZM1389.42 -1.48C1377.67 -1.48 1366.82 3.01706 1358.91 11.3861C1350.99 19.757 1346.14 31.8816 1346.14 46.96H1350.14C1350.14 32.7584 1354.7 21.663 1361.81 14.1339C1368.93 6.60294 1378.72 2.52 1389.42 2.52V-1.48ZM1346.14 46.96C1346.14 62.1968 1350.83 74.1533 1358.61 82.3151C1366.39 90.4766 1377.11 94.68 1388.82 94.68V90.68C1378.08 90.68 1368.46 86.8434 1361.51 79.5549C1354.56 72.2667 1350.14 61.3632 1350.14 46.96H1346.14ZM1458.08 94.68C1476.01 94.68 1492.36 80.8057 1492.36 57.4H1488.36C1488.36 78.6343 1473.76 90.68 1458.08 90.68V94.68ZM1492.36 57.4C1492.36 33.9943 1476.01 20.12 1458.08 20.12V24.12C1473.76 24.12 1488.36 36.1657 1488.36 57.4H1492.36ZM1458.08 20.12C1440.16 20.12 1423.8 33.9943 1423.8 57.4H1427.8C1427.8 36.1657 1442.41 24.12 1458.08 24.12V20.12ZM1423.8 57.4C1423.8 80.8057 1440.16 94.68 1458.08 94.68V90.68C1442.41 90.68 1427.8 78.6343 1427.8 57.4H1423.8ZM1458.08 76.28C1454.22 76.28 1451.26 74.5958 1449.19 71.4974C1447.05 68.3114 1445.8 63.5292 1445.8 57.4H1441.8C1441.8 63.9908 1443.13 69.6486 1445.86 73.7226C1448.65 77.8842 1452.83 80.28 1458.08 80.28V76.28ZM1445.8 57.4C1445.8 51.3343 1447.05 46.5488 1449.19 43.3444C1451.27 40.2248 1454.23 38.52 1458.08 38.52V34.52C1452.82 34.52 1448.64 36.9552 1445.86 41.1256C1443.14 45.2112 1441.8 50.8657 1441.8 57.4H1445.8ZM1458.08 38.52C1461.94 38.52 1464.9 40.2248 1466.98 43.3444C1469.12 46.5488 1470.36 51.3343 1470.36 57.4H1474.36C1474.36 50.8657 1473.03 45.2112 1470.31 41.1256C1467.53 36.9552 1463.35 34.52 1458.08 34.52V38.52ZM1470.36 57.4C1470.36 63.5292 1469.11 68.3114 1466.98 71.4974C1464.91 74.5958 1461.95 76.28 1458.08 76.28V80.28C1463.34 80.28 1467.52 77.8842 1470.31 73.7226C1473.03 69.6486 1474.36 63.9908 1474.36 57.4H1470.36ZM1505.12 91H1503.12V93H1505.12V91ZM1522.76 91V93H1524.76V91H1522.76ZM1522.76 44.8L1521.35 43.3858L1520.76 43.9716V44.8H1522.76ZM1546.16 91H1544.16V93H1546.16V91ZM1563.8 91V93H1565.8V91H1563.8ZM1521.2 32.68V34.68H1522.02L1522.6 34.1087L1521.2 32.68ZM1520.84 32.68L1518.86 32.9741L1519.12 34.68H1520.84V32.68ZM1519.52 23.8L1521.5 23.5059L1521.25 21.8H1519.52V23.8ZM1505.12 23.8V21.8H1503.12V23.8H1505.12ZM1505.12 93H1522.76V89H1505.12V93ZM1524.76 91V44.8H1520.76V91H1524.76ZM1524.17 46.2142C1529.05 41.343 1532.02 39.24 1536.68 39.24V35.24C1530.3 35.24 1526.32 38.417 1521.35 43.3858L1524.17 46.2142ZM1536.68 39.24C1539.6 39.24 1541.22 40.0118 1542.26 41.4927C1543.43 43.1662 1544.16 46.1406 1544.16 51.28H1548.16C1548.16 45.9794 1547.45 41.9338 1545.53 39.1973C1543.48 36.2682 1540.36 35.24 1536.68 35.24V39.24ZM1544.16 51.28V91H1548.16V51.28H1544.16ZM1546.16 93H1563.8V89H1546.16V93ZM1565.8 91V49.12H1561.8V91H1565.8ZM1565.8 49.12C1565.8 40.4718 1564.22 33.2253 1560.48 28.0977C1556.66 22.8545 1550.82 20.12 1543.04 20.12V24.12C1549.78 24.12 1554.32 26.4255 1557.25 30.4523C1560.27 34.5947 1561.8 40.8482 1561.8 49.12H1565.8ZM1543.04 20.12C1533.14 20.12 1525.81 25.3614 1519.8 31.2513L1522.6 34.1087C1528.35 28.4786 1534.71 24.12 1543.04 24.12V20.12ZM1521.2 30.68H1520.84V34.68H1521.2V30.68ZM1522.82 32.3859L1521.5 23.5059L1517.54 24.0941L1518.86 32.9741L1522.82 32.3859ZM1519.52 21.8H1505.12V25.8H1519.52V21.8ZM1503.12 23.8V91H1507.12V23.8H1503.12ZM1620.76 90.16L1621.39 92.0574L1623.1 91.4858L1622.71 89.7223L1620.76 90.16ZM1617.88 77.32L1619.83 76.8823L1619.31 74.5909L1617.13 75.463L1617.88 77.32ZM1602.16 37.72V35.72H1600.16V37.72H1602.16ZM1618.72 37.72V39.72H1620.72V37.72H1618.72ZM1618.72 23.8H1620.72V21.8H1618.72V23.8ZM1602.16 23.8H1600.16V25.8H1602.16V23.8ZM1602.16 5.68H1604.16V3.68H1602.16V5.68ZM1587.52 5.68V3.68H1585.73L1585.53 5.45625L1587.52 5.68ZM1585.48 23.8L1585.64 25.7936L1587.28 25.6614L1587.46 24.0238L1585.48 23.8ZM1575.04 24.64L1574.88 22.6464L1573.04 22.7945V24.64H1575.04ZM1575.04 37.72H1573.04V39.72H1575.04V37.72ZM1584.52 37.72H1586.52V35.72H1584.52V37.72ZM1606.6 94.68C1612.79 94.68 1617.7 93.2868 1621.39 92.0574L1620.12 88.2626C1616.61 89.4332 1612.17 90.68 1606.6 90.68V94.68ZM1622.71 89.7223L1619.83 76.8823L1615.92 77.7577L1618.8 90.5977L1622.71 89.7223ZM1617.13 75.463C1615.46 76.1323 1613.09 76.76 1611.28 76.76V80.76C1613.79 80.76 1616.69 79.9477 1618.62 79.177L1617.13 75.463ZM1611.28 76.76C1608.69 76.76 1607.06 76.0028 1606.01 74.7295C1604.9 73.3796 1604.16 71.1018 1604.16 67.48H1600.16C1600.16 71.5382 1600.97 74.9004 1602.92 77.2705C1604.93 79.7172 1607.86 80.76 1611.28 80.76V76.76ZM1604.16 67.48V37.72H1600.16V67.48H1604.16ZM1602.16 39.72H1618.72V35.72H1602.16V39.72ZM1620.72 37.72V23.8H1616.72V37.72H1620.72ZM1618.72 21.8H1602.16V25.8H1618.72V21.8ZM1604.16 23.8V5.68H1600.16V23.8H1604.16ZM1602.16 3.68H1587.52V7.68H1602.16V3.68ZM1585.53 5.45625L1583.49 23.5762L1587.46 24.0238L1589.5 5.90375L1585.53 5.45625ZM1585.32 21.8064L1574.88 22.6464L1575.2 26.6336L1585.64 25.7936L1585.32 21.8064ZM1573.04 24.64V37.72H1577.04V24.64H1573.04ZM1575.04 39.72H1584.52V35.72H1575.04V39.72ZM1582.52 37.72V67.48H1586.52V37.72H1582.52ZM1582.52 67.48C1582.52 75.2017 1584.08 82.026 1588.01 86.9512C1592 91.9608 1598.16 94.68 1606.6 94.68V90.68C1599.07 90.68 1594.19 88.2992 1591.13 84.4588C1588.01 80.534 1586.52 74.7583 1586.52 67.48H1582.52ZM1666.41 83.8V81.8H1665.67L1665.11 82.2815L1666.41 83.8ZM1666.89 83.8L1668.87 83.4712L1668.59 81.8H1666.89V83.8ZM1668.09 91L1666.12 91.3288L1666.4 93H1668.09V91ZM1682.49 91V93H1684.49V91H1682.49ZM1628.61 31L1627.56 29.3011L1625.95 30.2992L1626.86 31.959L1628.61 31ZM1634.97 42.64L1633.22 43.599L1634.2 45.3953L1635.97 44.3724L1634.97 42.64ZM1664.97 47.92L1665.18 49.9088L1667.07 49.7082L1666.97 47.8111L1664.97 47.92ZM1664.97 58.72H1666.97V56.4565L1664.73 56.7352L1664.97 58.72ZM1664.97 72.28L1666.37 73.714L1666.97 73.125V72.28H1664.97ZM1646.13 94.68C1654.51 94.68 1661.68 90.4919 1667.72 85.3185L1665.11 82.2815C1659.39 87.1881 1653.12 90.68 1646.13 90.68V94.68ZM1666.41 85.8H1666.89V81.8H1666.41V85.8ZM1664.92 84.1288L1666.12 91.3288L1670.07 90.6712L1668.87 83.4712L1664.92 84.1288ZM1668.09 93H1682.49V89H1668.09V93ZM1684.49 91V51.76H1680.49V91H1684.49ZM1684.49 51.76C1684.49 41.7785 1682.25 33.8206 1677.49 28.3394C1672.7 22.8074 1665.62 20.12 1656.69 20.12V24.12C1664.8 24.12 1670.63 26.5326 1674.47 30.9606C1678.36 35.4394 1680.49 42.3015 1680.49 51.76H1684.49ZM1656.69 20.12C1645.63 20.12 1635.67 24.2647 1627.56 29.3011L1629.67 32.6989C1637.4 27.8953 1646.63 24.12 1656.69 24.12V20.12ZM1626.86 31.959L1633.22 43.599L1636.73 41.681L1630.37 30.041L1626.86 31.959ZM1635.97 44.3724C1642.18 40.7936 1647.78 38.28 1653.45 38.28V34.28C1646.65 34.28 1640.25 37.2863 1633.97 40.9076L1635.97 44.3724ZM1653.45 38.28C1657.16 38.28 1659.34 39.39 1660.67 40.932C1662.06 42.544 1662.81 44.9454 1662.98 48.0289L1666.97 47.8111C1666.78 44.2946 1665.91 40.876 1663.7 38.318C1661.43 35.69 1658.02 34.28 1653.45 34.28V38.28ZM1664.76 45.9312C1651.12 47.3801 1641.05 50.0285 1634.34 54.3376C1627.47 58.7566 1624.21 64.8812 1624.21 72.76H1628.21C1628.21 66.2388 1630.78 61.3834 1636.51 57.7024C1642.4 53.9115 1651.71 51.3399 1665.18 49.9088L1664.76 45.9312ZM1624.21 72.76C1624.21 78.9302 1626.36 84.4292 1630.24 88.3941C1634.13 92.3654 1639.64 94.68 1646.13 94.68V90.68C1640.63 90.68 1636.18 88.7346 1633.1 85.5959C1630.02 82.4508 1628.21 77.9898 1628.21 72.76H1624.21ZM1651.89 76.88C1649.57 76.88 1647.85 76.3606 1646.75 75.5037C1645.73 74.709 1645.01 73.4418 1645.01 71.32H1641.01C1641.01 74.4782 1642.16 76.991 1644.29 78.6563C1646.34 80.2594 1649.06 80.88 1651.89 80.88V76.88ZM1645.01 71.32C1645.01 69.0985 1645.96 67.0606 1648.89 65.2314C1651.95 63.3182 1657.1 61.713 1665.22 60.7048L1664.73 56.7352C1656.41 57.767 1650.58 59.4618 1646.77 61.8386C1642.83 64.2994 1641.01 67.5415 1641.01 71.32H1645.01ZM1662.97 58.72V72.28H1666.97V58.72H1662.97ZM1663.58 70.846C1659.39 74.9234 1656.15 76.88 1651.89 76.88V80.88C1657.72 80.88 1661.92 78.0366 1666.37 73.714L1663.58 70.846ZM1751.11 84.52L1752.43 86.0286L1753.7 84.9215L1752.82 83.4807L1751.11 84.52ZM1744.03 72.88L1745.74 71.8407L1744.53 69.8514L1742.75 71.3476L1744.03 72.88ZM1741.75 40.96L1740.45 42.4785L1742.09 43.8796L1743.36 42.1464L1741.75 40.96ZM1750.15 29.56L1751.76 30.7464L1752.87 29.2476L1751.45 28.0389L1750.15 29.56ZM1729.03 94.68C1736.9 94.68 1745.54 92.0194 1752.43 86.0286L1749.8 83.0114C1743.72 88.3006 1736.04 90.68 1729.03 90.68V94.68ZM1752.82 83.4807L1745.74 71.8407L1742.32 73.9193L1749.4 85.5593L1752.82 83.4807ZM1742.75 71.3476C1739.24 74.2875 1735.12 76.28 1730.95 76.28V80.28C1736.38 80.28 1741.38 77.7125 1745.32 74.4124L1742.75 71.3476ZM1730.95 76.28C1726.76 76.28 1723.16 74.518 1720.56 71.3435C1717.94 68.1426 1716.27 63.4004 1716.27 57.4H1712.27C1712.27 64.1196 1714.14 69.8174 1717.46 73.8765C1720.81 77.9619 1725.54 80.28 1730.95 80.28V76.28ZM1716.27 57.4C1716.27 51.4548 1717.91 46.7216 1720.58 43.5135C1723.22 40.3377 1726.97 38.52 1731.55 38.52V34.52C1725.81 34.52 1720.92 36.8423 1717.5 40.9565C1714.11 45.0384 1712.27 50.7452 1712.27 57.4H1716.27ZM1731.55 38.52C1734.62 38.52 1737.29 39.7699 1740.45 42.4785L1743.05 39.4415C1739.49 36.3901 1735.93 34.52 1731.55 34.52V38.52ZM1743.36 42.1464L1751.76 30.7464L1748.54 28.3736L1740.14 39.7736L1743.36 42.1464ZM1751.45 28.0389C1746.25 23.6026 1739.45 20.12 1730.59 20.12V24.12C1738.29 24.12 1744.21 27.1174 1748.85 31.0811L1751.45 28.0389ZM1730.59 20.12C1711.33 20.12 1694.27 33.8938 1694.27 57.4H1698.27C1698.27 36.2662 1713.37 24.12 1730.59 24.12V20.12ZM1694.27 57.4C1694.27 68.9915 1697.96 78.3417 1704.24 84.8045C1710.53 91.2662 1719.26 94.68 1729.03 94.68V90.68C1720.21 90.68 1712.56 87.6138 1707.11 82.0155C1701.67 76.4183 1698.27 68.1285 1698.27 57.4H1694.27ZM1801.11 90.16L1801.74 92.0574L1803.45 91.4858L1803.06 89.7223L1801.11 90.16ZM1798.23 77.32L1800.18 76.8823L1799.66 74.5909L1797.48 75.463L1798.23 77.32ZM1782.51 37.72V35.72H1780.51V37.72H1782.51ZM1799.07 37.72V39.72H1801.07V37.72H1799.07ZM1799.07 23.8H1801.07V21.8H1799.07V23.8ZM1782.51 23.8H1780.51V25.8H1782.51V23.8ZM1782.51 5.68H1784.51V3.68H1782.51V5.68ZM1767.87 5.68V3.68H1766.08L1765.88 5.45625L1767.87 5.68ZM1765.83 23.8L1765.99 25.7936L1767.63 25.6614L1767.81 24.0238L1765.83 23.8ZM1755.39 24.64L1755.23 22.6464L1753.39 22.7945V24.64H1755.39ZM1755.39 37.72H1753.39V39.72H1755.39V37.72ZM1764.87 37.72H1766.87V35.72H1764.87V37.72ZM1786.95 94.68C1793.14 94.68 1798.05 93.2868 1801.74 92.0574L1800.47 88.2626C1796.96 89.4332 1792.52 90.68 1786.95 90.68V94.68ZM1803.06 89.7223L1800.18 76.8823L1796.28 77.7577L1799.16 90.5977L1803.06 89.7223ZM1797.48 75.463C1795.81 76.1323 1793.44 76.76 1791.63 76.76V80.76C1794.14 80.76 1797.04 79.9477 1798.97 79.177L1797.48 75.463ZM1791.63 76.76C1789.04 76.76 1787.41 76.0028 1786.36 74.7295C1785.25 73.3796 1784.51 71.1018 1784.51 67.48H1780.51C1780.51 71.5382 1781.32 74.9004 1783.27 77.2705C1785.29 79.7172 1788.21 80.76 1791.63 80.76V76.76ZM1784.51 67.48V37.72H1780.51V67.48H1784.51ZM1782.51 39.72H1799.07V35.72H1782.51V39.72ZM1801.07 37.72V23.8H1797.07V37.72H1801.07ZM1799.07 21.8H1782.51V25.8H1799.07V21.8ZM1784.51 23.8V5.68H1780.51V23.8H1784.51ZM1782.51 3.68H1767.87V7.68H1782.51V3.68ZM1765.88 5.45625L1763.84 23.5762L1767.81 24.0238L1769.85 5.90375L1765.88 5.45625ZM1765.67 21.8064L1755.23 22.6464L1755.55 26.6336L1765.99 25.7936L1765.67 21.8064ZM1753.39 24.64V37.72H1757.39V24.64H1753.39ZM1755.39 39.72H1764.87V35.72H1755.39V39.72ZM1762.87 37.72V67.48H1766.87V37.72H1762.87ZM1762.87 67.48C1762.87 75.2017 1764.43 82.026 1768.36 86.9512C1772.35 91.9608 1778.51 94.68 1786.95 94.68V90.68C1779.42 90.68 1774.55 88.2992 1771.49 84.4588C1768.36 80.534 1766.87 74.7583 1766.87 67.48H1762.87ZM1841.37 91H1839.37V93H1841.37V91ZM1857.33 91V93H1859.33V91H1857.33ZM1855.05 24.76V22.76H1852.84L1853.06 24.959L1855.05 24.76ZM1855.53 24.76L1857.42 24.1178L1856.96 22.76H1855.53V24.76ZM1862.61 45.64L1860.71 46.2822L1860.72 46.3081L1860.73 46.3336L1862.61 45.64ZM1876.41 82.96L1874.53 83.6536L1875.01 84.96H1876.41V82.96ZM1886.61 82.96V84.96H1888L1888.48 83.6483L1886.61 82.96ZM1900.29 45.64L1902.16 46.3283L1902.17 46.3102L1902.18 46.292L1900.29 45.64ZM1907.49 24.76V22.76H1906.06L1905.59 24.108L1907.49 24.76ZM1908.09 24.76L1910.07 24.9871L1910.33 22.76H1908.09V24.76ZM1905.81 91H1903.81V93H1905.81V91ZM1922.01 91V93H1924.01V91H1922.01ZM1922.01 2.07999H1924.01V0.0799932H1922.01V2.07999ZM1902.33 2.07999V0.0799932H1900.91L1900.44 1.4118L1902.33 2.07999ZM1887.57 43.72L1885.68 43.0518L1885.68 43.063L1887.57 43.72ZM1882.17 60.76V62.76H1883.6L1884.06 61.4045L1882.17 60.76ZM1881.57 60.76L1879.66 61.3681L1880.1 62.76H1881.57V60.76ZM1876.17 43.72L1878.05 43.063L1878.05 43.0501L1878.05 43.0374L1876.17 43.72ZM1861.05 2.07999L1862.93 1.39738L1862.45 0.0799932H1861.05V2.07999ZM1841.37 2.07999V0.0799932H1839.37V2.07999H1841.37ZM1841.37 93H1857.33V89H1841.37V93ZM1859.33 91V53.92H1855.33V91H1859.33ZM1859.33 53.92C1859.33 45.3898 1857.87 32.8805 1857.04 24.561L1853.06 24.959C1853.9 33.4394 1855.33 45.6502 1855.33 53.92H1859.33ZM1855.05 26.76H1855.53V22.76H1855.05V26.76ZM1853.63 25.4022L1860.71 46.2822L1864.5 44.9978L1857.42 24.1178L1853.63 25.4022ZM1860.73 46.3336L1874.53 83.6536L1878.28 82.2664L1864.48 44.9464L1860.73 46.3336ZM1876.41 84.96H1886.61V80.96H1876.41V84.96ZM1888.48 83.6483L1902.16 46.3283L1898.41 44.9517L1884.73 82.2717L1888.48 83.6483ZM1902.18 46.292L1909.38 25.412L1905.59 24.108L1898.39 44.988L1902.18 46.292ZM1907.49 26.76H1908.09V22.76H1907.49V26.76ZM1906.1 24.5329C1905.14 32.9094 1903.81 45.3856 1903.81 53.92H1907.81C1907.81 45.6544 1909.11 33.4106 1910.07 24.9871L1906.1 24.5329ZM1903.81 53.92V91H1907.81V53.92H1903.81ZM1905.81 93H1922.01V89H1905.81V93ZM1924.01 91V2.07999H1920.01V91H1924.01ZM1922.01 0.0799932H1902.33V4.07999H1922.01V0.0799932ZM1900.44 1.4118L1885.68 43.0518L1889.45 44.3882L1904.21 2.74819L1900.44 1.4118ZM1885.68 43.063C1884.7 45.8662 1883.82 48.7531 1882.95 51.6139C1882.08 54.4872 1881.22 57.3332 1880.27 60.1155L1884.06 61.4045C1885.03 58.5468 1885.91 55.6328 1886.78 52.7761C1887.65 49.9069 1888.51 47.0938 1889.45 44.377L1885.68 43.063ZM1882.17 58.76H1881.57V62.76H1882.17V58.76ZM1883.47 60.1519C1881.7 54.6007 1879.98 48.607 1878.05 43.063L1874.28 44.377C1876.19 49.873 1877.83 55.6393 1879.66 61.3681L1883.47 60.1519ZM1878.05 43.0374L1862.93 1.39738L1859.17 2.76261L1874.29 44.4026L1878.05 43.0374ZM1861.05 0.0799932H1841.37V4.07999H1861.05V0.0799932ZM1839.37 2.07999V91H1843.37V2.07999H1839.37ZM1995.03 85.24L1996.16 86.8855L1997.66 85.8544L1996.78 84.2687L1995.03 85.24ZM1989.03 74.44L1990.78 73.4687L1989.75 71.628L1987.97 72.744L1989.03 74.44ZM1955.31 62.32V60.32H1953.03L1953.32 62.5787L1955.31 62.32ZM1996.71 62.32V64.32H1998.18L1998.62 62.9082L1996.71 62.32ZM1955.07 50.56L1953.09 50.2909L1952.78 52.56H1955.07V50.56ZM1982.43 50.56V52.56H1984.43V50.56H1982.43ZM1971.63 94.68C1980.34 94.68 1989.25 91.6595 1996.16 86.8855L1993.89 83.5945C1987.6 87.9405 1979.47 90.68 1971.63 90.68V94.68ZM1996.78 84.2687L1990.78 73.4687L1987.28 75.4113L1993.28 86.2113L1996.78 84.2687ZM1987.97 72.744C1983.41 75.5913 1978.97 77.12 1973.91 77.12V81.12C1979.88 81.12 1985.04 79.2887 1990.09 76.136L1987.97 72.744ZM1973.91 77.12C1969.32 77.12 1965.52 75.7984 1962.73 73.3544C1959.94 70.9132 1957.96 67.1938 1957.29 62.0613L1953.32 62.5787C1954.09 68.4862 1956.44 73.1668 1960.1 76.3656C1963.75 79.5616 1968.54 81.12 1973.91 81.12V77.12ZM1955.31 64.32H1996.71V60.32H1955.31V64.32ZM1998.62 62.9082C1999.19 61.0602 1999.55 57.5821 1999.55 54.16H1995.55C1995.55 57.4579 1995.19 60.4598 1994.8 61.7318L1998.62 62.9082ZM1999.55 54.16C1999.55 44.5977 1997.06 36.0909 1991.98 29.936C1986.85 23.7302 1979.24 20.12 1969.47 20.12V24.12C1978.17 24.12 1984.6 27.2897 1988.9 32.484C1993.23 37.7291 1995.55 45.2423 1995.55 54.16H1999.55ZM1969.47 20.12C1952.32 20.12 1936.15 34.6616 1936.15 57.4H1940.15C1940.15 36.6983 1954.7 24.12 1969.47 24.12V20.12ZM1936.15 57.4C1936.15 68.9532 1939.97 78.3056 1946.4 84.7757C1952.84 91.24 1961.74 94.68 1971.63 94.68V90.68C1962.68 90.68 1954.84 87.58 1949.24 81.9543C1943.65 76.3344 1940.15 68.0468 1940.15 57.4H1936.15ZM1957.05 50.8291C1957.66 46.3431 1959.38 43.0978 1961.6 40.9862C1963.83 38.8785 1966.66 37.8 1969.71 37.8V33.8C1965.68 33.8 1961.85 35.2415 1958.85 38.0838C1955.86 40.9222 1953.8 45.0569 1953.09 50.2909L1957.05 50.8291ZM1969.71 37.8C1973.55 37.8 1976.11 39.0576 1977.76 41.072C1979.46 43.1522 1980.43 46.3249 1980.43 50.56H1984.43C1984.43 45.7951 1983.35 41.5878 1980.85 38.538C1978.3 35.4224 1974.51 33.8 1969.71 33.8V37.8ZM1982.43 48.56H1955.07V52.56H1982.43V48.56Z" fill="white"/>
</svg>
