<svg width="893" height="280" viewBox="0 0 893 280" fill="none" xmlns="http://www.w3.org/2000/svg">
<path d="M889.252 8.81763C890.377 9.74399 891.252 10.7519 891.869 11.8424L890.998 12.3345C891.293 12.8571 891.52 13.3975 891.679 13.9571C891.837 14.5166 891.928 15.0953 891.951 15.695L892.951 15.6566C892.999 16.9084 892.784 18.2255 892.312 19.6049L891.366 19.2816C890.996 20.3632 890.451 21.5037 889.726 22.7021L890.581 23.2202C889.94 24.2779 889.172 25.3659 888.279 26.4833L887.498 25.859C886.729 26.8211 885.862 27.8096 884.898 28.8237L885.622 29.513C884.722 30.459 883.742 31.4235 882.682 32.4061L882.002 31.6728C881.094 32.5154 880.125 33.3727 879.097 34.2442L879.743 35.007C878.744 35.8537 877.691 36.7126 876.584 37.5833L875.966 36.7974C874.961 37.5881 873.91 38.3891 872.815 39.2004L873.411 40.0039C872.353 40.7877 871.254 41.5803 870.115 42.3817L869.54 41.5638C868.485 42.3058 867.395 43.0555 866.271 43.8128L866.83 44.6422C865.722 45.3883 864.582 46.1414 863.408 46.9013L862.865 46.062C861.786 46.7606 860.679 47.4652 859.545 48.1756L860.076 49.0231C858.938 49.7361 857.772 50.4548 856.579 51.179L856.06 50.3242C854.952 50.9966 853.821 51.6739 852.666 52.356L853.175 53.217C852.037 53.8888 850.877 54.5652 849.695 55.2461L849.196 54.3795C848.034 55.0491 846.849 55.7231 845.644 56.4014L846.134 57.273C845.002 57.9094 843.852 58.5495 842.683 59.1933L842.201 58.3173C841.035 58.9597 839.85 59.6057 838.647 60.2552L839.122 61.1352C837.945 61.7707 836.75 62.4095 835.538 63.0517L835.07 62.168C833.917 62.7787 832.749 63.3923 831.565 64.0089L832.027 64.8959C830.841 65.5135 829.639 66.1341 828.422 66.7575L827.967 65.8675C826.773 66.4787 825.565 67.0927 824.343 67.7094L824.793 68.6023C823.625 69.1913 822.444 69.7827 821.249 70.3765L820.804 69.481C819.611 70.074 818.405 70.6693 817.186 71.267L817.626 72.1649C816.407 72.7627 815.174 73.3628 813.929 73.9652L813.494 73.065C812.321 73.6323 811.136 74.2017 809.94 74.7731L810.371 75.6754C809.174 76.2474 807.965 76.8214 806.745 77.3974L806.318 76.493C805.099 77.0683 803.869 77.6455 802.628 78.2245L803.05 79.1308C801.844 79.6934 800.628 80.2577 799.401 80.8237L798.982 79.9157C797.786 80.4674 796.58 81.0208 795.365 81.5757L795.78 82.4854C794.563 83.0409 793.337 83.598 792.1 84.1566L791.688 83.2453C790.453 83.8034 789.208 84.3631 787.953 84.9243L788.362 85.8371C787.161 86.3742 785.951 86.9127 784.733 87.4525L784.328 86.5382C783.117 87.0747 781.897 87.6126 780.669 88.1517L781.071 89.0674C779.842 89.607 778.604 90.1479 777.358 90.6901L776.959 89.7731C775.716 90.3136 774.465 90.8554 773.206 91.3984L773.602 92.3167C772.396 92.8369 771.182 93.3581 769.96 93.8805L769.567 92.961C768.346 93.483 767.118 94.0061 765.882 94.5302L766.273 95.4509C765.036 95.9754 763.791 96.501 762.54 97.0276L762.152 96.1059C760.902 96.6317 759.645 97.1585 758.38 97.6863L758.765 98.6092C757.551 99.1159 756.33 99.6235 755.103 100.132L754.72 99.2082C753.493 99.7164 752.26 100.225 751.02 100.735L751.4 101.66C750.159 102.171 748.911 102.682 747.657 103.194L747.279 102.268C746.025 102.78 744.765 103.292 743.499 103.806L743.874 104.732C742.647 105.23 741.413 105.728 740.173 106.227L739.799 105.3C738.569 105.795 737.333 106.291 736.091 106.787L736.462 107.716C735.219 108.213 733.97 108.71 732.715 109.209L732.346 108.279C731.092 108.777 729.832 109.276 728.566 109.775L728.933 110.706C727.686 111.197 726.434 111.69 725.177 112.183L724.812 111.252C723.58 111.735 722.342 112.218 721.1 112.702L721.462 113.634C720.219 114.118 718.97 114.603 717.716 115.089L717.355 114.156C716.102 114.641 714.843 115.127 713.579 115.613L713.938 116.547C712.674 117.033 711.404 117.52 710.129 118.008L709.771 117.074C708.536 117.546 707.295 118.02 706.049 118.493L706.404 119.428C705.161 119.901 703.914 120.373 702.661 120.847L702.308 119.911C701.056 120.385 699.799 120.858 698.538 121.332L698.89 122.268C697.628 122.743 696.361 123.217 695.09 123.693L694.74 122.756C693.478 123.227 692.211 123.699 690.94 124.172L691.289 125.109C690.047 125.57 688.801 126.032 687.551 126.494L687.204 125.556C685.954 126.018 684.7 126.481 683.442 126.943L683.787 127.882C682.528 128.345 681.264 128.808 679.997 129.271L679.654 128.332C678.387 128.795 677.115 129.259 675.84 129.723L676.182 130.662C674.92 131.121 673.654 131.58 672.384 132.04L672.044 131.099C670.797 131.551 669.545 132.002 668.29 132.454L668.629 133.395C667.373 133.847 666.113 134.299 664.849 134.752L664.512 133.81C663.249 134.263 661.982 134.715 660.711 135.168L661.047 136.11C659.776 136.563 658.501 137.016 657.222 137.469L656.888 136.527C655.623 136.975 654.355 137.423 653.084 137.872L653.416 138.815C652.163 139.257 650.907 139.699 649.647 140.141L649.316 139.197C648.057 139.64 646.794 140.082 645.527 140.524L645.857 141.468C644.59 141.911 643.32 142.353 642.046 142.796L641.717 141.852C641.164 142.044 640.609 142.237 640.054 142.429C639.333 142.679 638.61 142.93 637.887 143.18L638.214 144.125C636.943 144.565 635.668 145.004 634.391 145.444L634.065 144.499C632.809 144.931 631.55 145.364 630.288 145.796L630.612 146.742C629.349 147.175 628.083 147.608 626.813 148.041L626.491 147.094C625.222 147.527 623.95 147.96 622.675 148.393L622.996 149.34C621.721 149.773 620.442 150.206 619.16 150.639L618.84 149.691C618.463 149.819 618.086 149.946 617.709 150.073C616.806 150.378 615.901 150.683 614.994 150.988L615.313 151.936C614.054 152.359 612.791 152.783 611.526 153.207L611.209 152.258C609.944 152.682 608.676 153.105 607.406 153.529L607.722 154.477C606.451 154.901 605.178 155.324 603.901 155.748L603.586 154.799C602.31 155.222 601.031 155.646 599.749 156.069L600.063 157.019C598.78 157.442 597.495 157.866 596.207 158.289L595.895 157.339C594.627 157.756 593.356 158.173 592.082 158.59L592.394 159.541C591.127 159.955 589.857 160.37 588.585 160.785L588.275 159.834C587.004 160.248 585.729 160.663 584.453 161.077L584.761 162.028C583.484 162.443 582.204 162.857 580.922 163.271L580.614 162.32C579.332 162.734 578.048 163.148 576.76 163.562L577.067 164.514C575.786 164.926 574.502 165.338 573.216 165.75L572.911 164.798C571.643 165.204 570.373 165.61 569.101 166.015L569.404 166.968C568.131 167.374 566.856 167.78 565.578 168.186L565.276 167.232C563.999 167.638 562.719 168.043 561.437 168.449L561.738 169.402C560.456 169.808 559.171 170.213 557.884 170.618L557.584 169.664C556.297 170.069 555.008 170.474 553.717 170.879L554.016 171.833C552.74 172.233 551.462 172.633 550.181 173.032L549.883 172.078C548.61 172.475 547.334 172.872 546.057 173.269L546.354 174.224C545.076 174.621 543.795 175.018 542.513 175.415L542.218 174.46C540.936 174.857 539.652 175.253 538.365 175.649L538.66 176.605C537.373 177.001 536.085 177.398 534.794 177.794L534.501 176.838C533.211 177.233 531.919 177.629 530.625 178.024L530.917 178.981C529.643 179.37 528.366 179.759 527.088 180.148L526.797 179.191C525.519 179.58 524.239 179.968 522.957 180.357L523.247 181.314C521.965 181.702 520.681 182.091 519.395 182.478L519.106 181.521C517.82 181.909 516.532 182.297 515.243 182.684L515.531 183.642C514.241 184.029 512.949 184.416 511.655 184.803L511.368 183.845C510.08 184.231 508.79 184.616 507.498 185.001L507.783 185.959C506.504 186.34 505.224 186.72 503.942 187.101L503.657 186.142C502.375 186.522 501.092 186.902 499.806 187.282L500.089 188.241C498.804 188.621 497.516 189 496.227 189.379L495.945 188.42C494.656 188.799 493.365 189.178 492.072 189.557L492.354 190.516C491.061 190.895 489.766 191.273 488.47 191.651L488.19 190.691C486.901 191.067 485.611 191.442 484.319 191.818L484.598 192.778C483.316 193.15 482.031 193.522 480.746 193.894L480.468 192.934C479.182 193.305 477.895 193.677 476.607 194.048L476.884 195.009C475.595 195.38 474.304 195.751 473.012 196.121L472.736 195.16C471.445 195.53 470.151 195.9 468.857 196.27L469.131 197.232C467.836 197.601 466.539 197.971 465.241 198.34L464.968 197.378C464.319 197.563 463.669 197.747 463.02 197.931C462.37 198.116 461.721 198.299 461.072 198.483L461.344 199.445C460.046 199.813 458.748 200.18 457.452 200.545L457.18 199.582C455.884 199.948 454.589 200.312 453.296 200.675L453.566 201.638C452.272 202.001 450.979 202.363 449.687 202.724L449.418 201.761C448.126 202.122 446.836 202.482 445.547 202.84L445.815 203.804C444.525 204.163 443.237 204.52 441.95 204.877L441.683 203.913C440.387 204.272 439.091 204.63 437.797 204.987L438.063 205.951C436.762 206.31 435.461 206.668 434.162 207.024L433.898 206.06C432.599 206.417 431.302 206.772 430.006 207.126L430.269 208.091C428.973 208.445 427.678 208.798 426.384 209.15L426.122 208.186C424.828 208.537 423.536 208.888 422.246 209.238L422.507 210.203C421.216 210.553 419.926 210.901 418.638 211.249L418.378 210.283C417.076 210.634 415.776 210.984 414.477 211.332L414.736 212.298C413.432 212.648 412.129 212.997 410.828 213.345L410.57 212.379C409.269 212.726 407.97 213.072 406.672 213.418L406.929 214.384C405.631 214.729 404.334 215.073 403.039 215.416L402.783 214.449C401.488 214.792 400.195 215.133 398.903 215.473L399.158 216.441C397.865 216.781 396.575 217.12 395.286 217.458L395.032 216.49C393.724 216.834 392.417 217.175 391.111 217.516L391.363 218.483C390.057 218.824 388.752 219.164 387.449 219.502L387.198 218.534C385.895 218.872 384.594 219.209 383.295 219.545L383.545 220.513C382.245 220.849 380.948 221.183 379.651 221.516L379.402 220.548C378.107 220.881 376.813 221.212 375.52 221.543L375.768 222.512C374.469 222.844 373.171 223.175 371.875 223.505L371.628 222.536C370.317 222.869 369.007 223.202 367.7 223.532L367.945 224.502C366.637 224.833 365.331 225.163 364.026 225.491L363.782 224.521C363.235 224.659 362.688 224.797 362.142 224.934C361.386 225.124 360.631 225.313 359.877 225.502L360.119 226.472C358.819 226.798 357.521 227.122 356.224 227.445L355.982 226.475C354.686 226.798 353.392 227.119 352.1 227.44L352.341 228.41C351.03 228.735 349.721 229.059 348.415 229.381L348.175 228.41C346.863 228.733 345.552 229.055 344.243 229.376L344.481 230.347C343.172 230.668 341.866 230.988 340.561 231.306L340.324 230.334C339.02 230.652 337.718 230.968 336.418 231.283L336.654 232.255C335.353 232.57 334.055 232.884 332.759 233.196L332.525 232.224C331.222 232.538 329.922 232.851 328.624 233.162L328.857 234.134C327.538 234.45 326.222 234.764 324.909 235.077L324.677 234.105C323.364 234.417 322.053 234.729 320.744 235.038L320.975 236.012C319.666 236.321 318.359 236.63 317.055 236.937L316.826 235.963C315.523 236.27 314.222 236.575 312.923 236.879L313.151 237.853C311.852 238.157 310.555 238.459 309.261 238.76L309.035 237.786C307.714 238.093 306.396 238.398 305.081 238.702L305.306 239.676C303.987 239.981 302.672 240.284 301.359 240.585L301.135 239.61C299.823 239.912 298.513 240.211 297.206 240.509L297.428 241.484C296.121 241.782 294.816 242.079 293.514 242.374L293.293 241.398C291.992 241.693 290.693 241.986 289.397 242.278L289.616 243.253C288.298 243.55 286.983 243.845 285.67 244.138L285.452 243.162C284.13 243.458 282.811 243.751 281.495 244.043L281.711 245.02C280.395 245.312 279.081 245.602 277.77 245.891L277.555 244.914C276.245 245.203 274.938 245.49 273.634 245.775L273.848 246.752C272.543 247.037 271.242 247.321 269.944 247.602L269.732 246.625C268.414 246.911 267.099 247.195 265.788 247.478L265.999 248.456C264.672 248.741 263.349 249.025 262.029 249.307L261.82 248.329C260.501 248.611 259.185 248.892 257.873 249.17L258.08 250.148C256.767 250.427 255.458 250.703 254.151 250.978L253.946 250C252.64 250.274 251.338 250.547 250.039 250.818L250.244 251.797C248.922 252.073 247.603 252.347 246.289 252.619L246.086 251.64C244.757 251.915 243.432 252.188 242.11 252.459L242.311 253.438C240.989 253.71 239.671 253.979 238.357 254.246L238.157 253.266C236.844 253.533 235.533 253.798 234.227 254.062L234.425 255.042C233.118 255.305 231.815 255.566 230.516 255.826L230.32 254.845C228.991 255.111 227.665 255.374 226.344 255.635L226.538 256.616C225.206 256.88 223.879 257.141 222.556 257.4L222.364 256.418C221.041 256.677 219.723 256.934 218.409 257.189L218.6 258.171C217.285 258.425 215.975 258.678 214.669 258.929L214.481 257.946C213.172 258.198 211.867 258.447 210.567 258.693L210.754 259.676C209.413 259.93 208.076 260.183 206.744 260.433L206.56 259.45C205.229 259.7 203.903 259.947 202.581 260.193L202.764 261.176C201.441 261.421 200.124 261.664 198.812 261.905L198.631 260.921C197.319 261.162 196.012 261.4 194.71 261.636L194.889 262.62C193.559 262.861 192.235 263.1 190.916 263.336L190.74 262.351C189.401 262.591 188.066 262.828 186.738 263.063L186.912 264.048C185.582 264.283 184.258 264.515 182.939 264.745L182.767 263.76C181.449 263.99 180.137 264.217 178.83 264.441L178.999 265.427C177.682 265.653 176.37 265.877 175.064 266.098L174.897 265.112C173.55 265.341 172.208 265.566 170.872 265.789L171.037 266.775C169.701 266.998 168.37 267.218 167.046 267.436L166.884 266.449C165.561 266.666 164.244 266.881 162.933 267.093L163.092 268.08C161.781 268.292 160.475 268.501 159.176 268.707L159.019 267.719C157.666 267.934 156.319 268.146 154.979 268.355L155.133 269.343C153.792 269.552 152.457 269.758 151.129 269.961L150.977 268.973C149.65 269.176 148.33 269.376 147.018 269.572L147.166 270.561C145.852 270.758 144.545 270.952 143.245 271.143L143.1 270.154C141.743 270.353 140.394 270.549 139.053 270.741L139.195 271.731C137.849 271.924 136.512 272.114 135.183 272.3L135.044 271.309C133.715 271.496 132.395 271.678 131.083 271.858L131.218 272.848C129.898 273.029 128.586 273.206 127.282 273.379L127.15 272.388C125.787 272.569 124.434 272.747 123.09 272.92L123.218 273.912C121.872 274.086 120.536 274.256 119.208 274.422L119.084 273.43C117.758 273.596 116.441 273.758 115.134 273.917L115.254 274.91C113.913 275.072 112.581 275.231 111.26 275.385L111.144 274.392C109.783 274.551 108.433 274.706 107.094 274.856L107.206 275.85C105.865 276.001 104.535 276.147 103.215 276.289L103.108 275.295C101.79 275.436 100.483 275.574 99.1869 275.707L99.2891 276.702C97.9128 276.843 96.5488 276.98 95.1972 277.111L95.1003 276.116C93.7488 276.247 92.4099 276.374 91.0834 276.496L91.1748 277.492C89.8465 277.614 88.5307 277.731 87.2275 277.843L87.1419 276.846C85.7774 276.964 84.4269 277.075 83.0905 277.182L83.1698 278.179C81.8068 278.287 80.4584 278.39 79.1248 278.487L79.0522 277.49C77.7208 277.587 76.4043 277.678 75.1027 277.763L75.1683 278.761C73.7997 278.851 72.4476 278.935 71.1121 279.012L71.0543 278.014C69.6892 278.093 68.3417 278.165 67.0119 278.231L67.0613 279.23C65.7286 279.296 64.4136 279.355 63.1165 279.408L63.0761 278.408C61.6937 278.464 60.3319 278.513 58.9909 278.553L59.0212 279.553C57.6576 279.594 56.3154 279.628 54.9946 279.653L54.9753 278.653C53.6344 278.679 52.316 278.697 51.0204 278.706L51.0276 279.706C49.632 279.716 48.2624 279.717 46.9192 279.708L46.9259 278.708C45.5875 278.699 44.2758 278.681 42.991 278.652L42.9692 279.652C41.5716 279.622 40.2054 279.58 38.871 279.526L38.9109 278.527C37.5564 278.473 36.2354 278.407 34.9483 278.33L34.8881 279.328C33.4981 279.244 32.1468 279.146 30.8349 279.035L30.9196 278.038C29.5617 277.923 28.2472 277.793 26.9766 277.648L26.8632 278.641C25.464 278.481 24.1165 278.304 22.8217 278.108L22.9714 277.119C21.6386 276.917 20.364 276.696 19.1484 276.456L18.9547 277.437C17.5373 277.158 16.1964 276.852 14.9337 276.519L15.1883 275.552C13.8347 275.196 12.5777 274.81 11.4182 274.395L11.0812 275.336C9.73462 274.854 8.50963 274.332 7.40901 273.768L7.86486 272.878C6.61778 272.239 5.55508 271.555 4.67258 270.828L4.03707 271.6C2.91159 270.674 2.03679 269.666 1.42034 268.576L2.29088 268.084C1.99551 267.561 1.76894 267.021 1.61019 266.461C1.45147 265.902 1.36049 265.323 1.33745 264.723L0.338189 264.761C0.290087 263.51 0.505255 262.193 0.976575 260.813L1.92286 261.136C2.29243 260.055 2.83738 258.914 3.56326 257.716L2.70793 257.198C3.34856 256.14 4.11661 255.052 5.00947 253.935L5.79068 254.559C6.55946 253.597 7.42655 252.609 8.39139 251.594L7.6669 250.905C8.56693 249.959 9.54732 248.995 10.6067 248.012L11.2867 248.745C12.1952 247.903 13.1639 247.045 14.1922 246.174L13.5456 245.411C14.5446 244.564 15.598 243.705 16.7048 242.835L17.3231 243.621C18.3282 242.83 19.3785 242.029 20.4735 241.218L19.8783 240.414C20.9362 239.63 22.0349 238.838 23.1738 238.036L23.7492 238.854C24.8038 238.112 25.8934 237.363 27.0177 236.605L26.459 235.776C27.5666 235.03 28.7073 234.277 29.8806 233.517L30.4243 234.356C31.5029 233.657 32.6095 232.953 33.7437 232.242L33.2129 231.395C34.3513 230.682 35.5172 229.963 36.7102 229.239L37.2291 230.094C38.3367 229.422 39.468 228.744 40.6227 228.062L40.1141 227.201C41.2515 226.529 42.4114 225.853 43.5935 225.172L44.0926 226.039C45.2552 225.369 46.4396 224.695 47.6454 224.017L47.1551 223.145C48.2865 222.509 49.4367 221.869 50.6054 221.225L51.0879 222.101C52.2541 221.458 53.4389 220.812 54.6421 220.163L54.1671 219.283C55.3442 218.647 56.5389 218.009 57.7509 217.366L58.219 218.25C59.3716 217.639 60.5399 217.026 61.7239 216.409L61.262 215.522C62.4479 214.905 63.6494 214.284 64.8664 213.661L65.3223 214.551C66.5155 213.939 67.7235 213.325 68.9464 212.709L68.496 211.816C69.6639 211.227 70.8451 210.635 72.0395 210.042L72.4847 210.937C73.6775 210.344 74.8835 209.749 76.1027 209.151L75.6625 208.253C76.8819 207.655 78.1144 207.055 79.3598 206.453L79.7952 207.353C80.9683 206.786 82.1529 206.216 83.3489 205.645L82.9178 204.743C84.1153 204.171 85.3241 203.597 86.5443 203.021L86.9711 203.925C88.1899 203.35 89.42 202.773 90.6613 202.194L90.2386 201.287C91.4445 200.725 92.661 200.16 93.8879 199.594L94.3068 200.502C95.5026 199.951 96.7084 199.397 97.924 198.842L97.5088 197.933C98.7256 197.377 99.9523 196.82 101.189 196.261L101.6 197.173C102.836 196.615 104.081 196.055 105.335 195.494L104.927 194.581C106.128 194.044 107.338 193.505 108.556 192.966L108.961 193.88C110.172 193.343 111.392 192.806 112.62 192.266L112.218 191.351C113.447 190.811 114.685 190.27 115.931 189.728L116.33 190.645C117.572 190.104 118.823 189.563 120.083 189.02L119.687 188.101C120.893 187.581 122.107 187.06 123.329 186.538L123.722 187.457C124.943 186.935 126.171 186.412 127.407 185.888L127.016 184.967C128.253 184.443 129.497 183.917 130.749 183.39L131.137 184.312C132.387 183.786 133.644 183.26 134.909 182.732L134.524 181.809C135.738 181.302 136.958 180.795 138.186 180.286L138.569 181.21C139.795 180.702 141.029 180.193 142.269 179.683L141.889 178.758C143.13 178.247 144.378 177.736 145.632 177.224L146.01 178.15C147.263 177.638 148.524 177.126 149.79 176.612L149.415 175.686C150.642 175.188 151.876 174.69 153.116 174.191L153.489 175.119C154.72 174.623 155.956 174.127 157.198 173.631L156.827 172.702C158.07 172.205 159.319 171.708 160.574 171.209L160.943 172.139C162.197 171.641 163.457 171.142 164.723 170.643L164.356 169.712C165.602 169.221 166.855 168.728 168.112 168.235L168.477 169.166C169.709 168.684 170.947 168.2 172.189 167.716L171.826 166.784C173.07 166.3 174.319 165.815 175.573 165.329L175.934 166.262C177.187 165.777 178.446 165.291 179.71 164.805L179.351 163.871C180.615 163.385 181.885 162.898 183.16 162.41L183.517 163.344C184.753 162.872 185.994 162.398 187.24 161.925L186.885 160.99C188.127 160.518 189.375 160.045 190.628 159.571L190.981 160.507C192.233 160.033 193.49 159.56 194.751 159.086L194.399 158.15C195.661 157.675 196.928 157.201 198.199 156.726L198.549 157.662C199.811 157.191 201.078 156.719 202.349 156.246L202 155.309C203.242 154.848 204.488 154.386 205.738 153.924L206.085 154.862C207.335 154.4 208.589 153.938 209.847 153.475L209.502 152.536C210.761 152.074 212.024 151.61 213.292 151.147L213.635 152.086C214.902 151.623 216.174 151.159 217.449 150.696L217.107 149.756C218.369 149.297 219.635 148.838 220.904 148.378L221.245 149.319C222.492 148.867 223.743 148.416 224.999 147.964L224.66 147.023C225.916 146.571 227.176 146.119 228.439 145.666L228.777 146.608C230.04 146.156 231.307 145.703 232.577 145.25L232.242 144.308C233.513 143.855 234.788 143.402 236.067 142.949L236.401 143.891C237.666 143.443 238.934 142.995 240.205 142.546L239.873 141.603C241.125 141.161 242.382 140.719 243.642 140.277L243.973 141.221C245.232 140.779 246.495 140.336 247.762 139.894L247.432 138.95C248.699 138.507 249.969 138.065 251.243 137.622L251.572 138.566C252.845 138.124 254.122 137.681 255.402 137.238L255.075 136.293C256.346 135.853 257.621 135.414 258.898 134.974L259.224 135.919C260.48 135.487 261.739 135.054 263.001 134.622L262.677 133.676C263.94 133.243 265.206 132.81 266.475 132.377L266.798 133.324C268.067 132.891 269.339 132.458 270.614 132.025L270.293 131.079C271.568 130.645 272.847 130.212 274.129 129.779L274.449 130.727C275.728 130.294 277.01 129.862 278.295 129.43L277.976 128.482C279.235 128.059 280.498 127.635 281.763 127.212L282.08 128.16C283.345 127.736 284.612 127.313 285.883 126.889L285.567 125.941C286.838 125.517 288.111 125.094 289.388 124.67L289.703 125.619C290.979 125.196 292.258 124.772 293.54 124.349L293.226 123.399C294.509 122.976 295.794 122.552 297.082 122.129L297.394 123.079C298.662 122.662 299.933 122.245 301.206 121.828L300.895 120.877C302.162 120.463 303.432 120.048 304.704 119.633L305.013 120.584C306.285 120.17 307.559 119.755 308.836 119.341L308.528 118.39C309.805 117.975 311.085 117.561 312.367 117.147L312.675 118.098C313.957 117.684 315.241 117.27 316.528 116.856L316.222 115.904C317.503 115.492 318.787 115.08 320.073 114.668L320.378 115.62C321.646 115.214 322.916 114.808 324.188 114.403L323.884 113.45C325.157 113.044 326.433 112.638 327.71 112.233L328.013 113.186C329.29 112.78 330.57 112.375 331.852 111.969L331.551 111.016C332.833 110.611 334.118 110.205 335.405 109.8L335.705 110.754C336.992 110.349 338.281 109.944 339.572 109.539L339.273 108.585C340.549 108.185 341.827 107.785 343.108 107.386L343.406 108.34C344.679 107.943 345.954 107.546 347.232 107.149L346.935 106.194C348.213 105.797 349.493 105.4 350.776 105.003L351.071 105.958C352.353 105.562 353.637 105.165 354.923 104.769L354.629 103.813C355.916 103.417 357.204 103.02 358.495 102.624L358.788 103.58C360.078 103.185 361.37 102.789 362.664 102.394L362.372 101.438C363.646 101.048 364.922 100.659 366.201 100.27L366.492 101.227C367.77 100.838 369.05 100.45 370.332 100.061L370.042 99.1042C371.324 98.7158 372.608 98.3276 373.894 97.9396L374.183 98.897C375.469 98.5091 376.756 98.1215 378.046 97.7341L377.758 96.7764C379.048 96.3889 380.34 96.0017 381.634 95.6147L381.92 96.5728C383.209 96.1874 384.499 95.8023 385.791 95.4175L385.506 94.4591C386.784 94.0782 388.065 93.6976 389.347 93.3173L389.632 94.276C390.913 93.8958 392.197 93.5158 393.483 93.1362L393.199 92.1771C394.485 91.7973 395.773 91.4178 397.062 91.0386L397.344 91.998C398.633 91.6189 399.924 91.2401 401.216 90.8616L400.935 89.9019C402.228 89.5233 403.523 89.145 404.819 88.767L405.099 89.727C406.387 89.3512 407.678 88.9757 408.97 88.6005L408.691 87.6402C409.973 87.2677 411.257 86.8956 412.543 86.5238L412.821 87.4844C414.106 87.1127 415.393 86.7414 416.682 86.3703L416.405 85.4094C417.694 85.0382 418.985 84.6674 420.277 84.2969L420.552 85.2582C421.844 84.8878 423.137 84.5178 424.432 84.1481L424.158 83.1865C425.453 82.8167 426.75 82.4473 428.048 82.0782L428.321 83.0401C428.97 82.8556 429.62 82.6712 430.269 82.4869C430.919 82.3026 431.568 82.1186 432.217 81.9349L431.945 80.9727C433.243 80.6051 434.541 80.2385 435.837 79.8731L436.108 80.8356C437.405 80.4703 438.699 80.1061 439.993 79.743L439.723 78.7802C441.017 78.417 442.31 78.0549 443.602 77.6939L443.871 78.657C445.163 78.2961 446.453 77.9364 447.742 77.5777L447.474 76.6143C448.763 76.2555 450.052 75.8979 451.339 75.5414L451.606 76.5051C452.902 76.1459 454.197 75.7879 455.492 75.431L455.226 74.467C456.527 74.1081 457.828 73.7503 459.127 73.3936L459.391 74.3579C460.69 74.0014 461.987 73.646 463.283 73.2917L463.02 72.3271C464.316 71.9728 465.611 71.6196 466.905 71.2676L467.167 72.2325C468.461 71.8806 469.753 71.5298 471.043 71.1803L470.782 70.215C472.073 69.8654 473.362 69.5168 474.651 69.1695L474.911 70.135C476.213 69.784 477.513 69.4342 478.812 69.0856L478.553 68.1198C479.857 67.7698 481.16 67.4209 482.461 67.0733L482.719 68.0394C484.02 67.6919 485.319 67.3456 486.617 67.0005L486.36 66.0341C487.658 65.6889 488.955 65.345 490.25 65.0022L490.506 65.9689C491.801 65.6263 493.094 65.2848 494.386 64.9446L494.131 63.9776C495.423 63.6373 496.714 63.2982 498.003 62.9603L498.256 63.9276C499.565 63.5846 500.872 63.2428 502.178 62.9022L501.925 61.9346C503.232 61.5938 504.537 61.2543 505.84 60.9161L506.091 61.884C507.394 61.5459 508.695 61.209 509.994 60.8734L509.744 59.9052C511.043 59.5695 512.341 59.2351 513.637 58.902L513.886 59.8705C515.182 59.5375 516.476 59.2058 517.768 58.8753L517.521 57.9065C518.82 57.5742 520.118 57.2431 521.414 56.9134L521.661 57.8826C522.972 57.5489 524.282 57.2166 525.589 56.8856L525.344 55.9162C526.652 55.5851 527.958 55.2553 529.262 54.927L529.507 55.8967C530.81 55.5684 532.112 55.2415 533.412 54.9159L533.169 53.9458C534.47 53.6201 535.768 53.2957 537.065 52.9727L537.306 53.9431C538.602 53.6202 539.897 53.2986 541.189 52.9784L540.948 52.0078C542.259 51.683 543.568 51.3596 544.874 51.0375L545.113 52.0085C546.426 51.6849 547.737 51.3628 549.045 51.042L548.807 50.0708C550.116 49.75 551.423 49.4305 552.728 49.1126L552.965 50.0841C554.269 49.7662 555.571 49.4498 556.871 49.1347L556.635 48.1629C557.936 47.8477 559.234 47.534 560.529 47.2217L560.764 48.1939C562.066 47.88 563.367 47.5675 564.665 47.2564L564.432 46.2839C565.751 45.968 567.067 45.6537 568.38 45.3407L568.612 46.3135C569.925 46.0007 571.236 45.6894 572.545 45.3797L572.314 44.4065C573.623 44.0967 574.929 43.7883 576.233 43.4814L576.463 44.4548C577.766 44.148 579.067 43.8428 580.366 43.539L580.138 42.5653C581.437 42.2615 582.734 41.9591 584.028 41.6583L584.254 42.6323C585.575 42.3253 586.893 42.0199 588.208 41.7161L587.983 40.7418C589.301 40.4373 590.617 40.1344 591.93 39.833L592.154 40.8077C593.466 40.5065 594.776 40.2069 596.083 39.9089L595.861 38.9339C597.168 38.6358 598.473 38.3393 599.775 38.0445L599.996 39.0198C601.297 38.725 602.596 38.4318 603.892 38.1402L603.673 37.1646C604.991 36.868 606.306 36.5731 607.619 36.2799L607.837 37.2558C609.159 36.9604 610.478 36.6667 611.794 36.3747L611.578 35.3984C612.894 35.1063 614.208 34.816 615.518 34.5273L615.734 35.5039C617.044 35.2153 618.351 34.9284 619.655 34.6433L619.441 33.6663C620.745 33.3811 622.047 33.0976 623.345 32.8157L623.557 33.793C624.875 33.5069 626.189 33.2226 627.501 32.9401L627.29 31.9626C628.617 31.6768 629.94 31.3928 631.259 31.1107L631.469 32.0886C632.788 31.8066 634.104 31.5264 635.416 31.248L635.209 30.2698C636.522 29.9913 637.831 29.7147 639.137 29.4399L639.343 30.4185C640.649 30.1438 641.951 29.871 643.25 29.6L643.045 28.6211C644.367 28.3452 645.686 28.0713 647 27.7992L647.203 28.7785C648.532 28.5035 649.857 28.2305 651.178 27.9594L650.977 26.9798C652.3 26.7086 653.618 26.4393 654.932 26.1721L655.131 27.1521C656.445 26.8849 657.755 26.6198 659.062 26.3566L658.864 25.3763C660.171 25.113 661.474 24.8516 662.773 24.5923L662.968 25.573C664.298 25.3075 665.624 25.0441 666.945 24.7827L666.751 23.8017C668.083 23.5384 669.41 23.2773 670.733 23.0182L670.925 23.9996C672.248 23.7407 673.566 23.4839 674.88 23.2292L674.689 22.2475C676.004 21.9927 677.314 21.74 678.62 21.4895L678.808 22.4716C680.117 22.2205 681.422 21.9716 682.722 21.7248L682.535 20.7423C683.876 20.4877 685.213 20.2354 686.544 19.9854L686.729 20.9683C688.06 20.7184 689.386 20.4708 690.708 20.2255L690.525 19.2423C691.847 18.9969 693.165 18.7539 694.477 18.5131L694.658 19.4967C695.97 19.2561 697.277 19.0177 698.579 18.7818L698.4 17.7978C699.729 17.5569 701.054 17.3184 702.372 17.0823L702.549 18.0667C703.888 17.8269 705.222 17.5897 706.551 17.3549L706.377 16.3702C707.707 16.1353 709.031 15.9029 710.35 15.6731L710.522 16.6583C711.84 16.4286 713.152 16.2014 714.459 15.9768L714.29 14.9912C715.607 14.7648 716.919 14.541 718.225 14.3197L718.392 15.3057C719.739 15.0774 721.081 14.8519 722.416 14.6291L722.252 13.6427C723.588 13.4198 724.918 13.1996 726.243 12.9822L726.405 13.969C727.728 13.7517 729.045 13.5373 730.356 13.3255L730.196 12.3383C731.508 12.1265 732.814 11.9174 734.113 11.7111L734.27 12.6987C735.623 12.4838 736.97 12.272 738.309 12.0632L738.155 11.0751C739.497 10.8659 740.832 10.6598 742.16 10.4568L742.311 11.4453C743.638 11.2424 744.958 11.0425 746.271 10.8457L746.123 9.85675C747.437 9.65981 748.744 9.46595 750.044 9.27515L750.189 10.2646C751.546 10.0654 752.895 9.86954 754.236 9.67708L754.094 8.68723C755.439 8.49418 756.777 8.30453 758.106 8.11827L758.245 9.10859C759.573 8.92248 760.894 8.73978 762.206 8.56049L762.071 7.56969C763.391 7.38929 764.703 7.21234 766.007 7.03886L766.139 8.03013C767.502 7.84884 768.855 7.67136 770.199 7.49767L770.071 6.50591C771.417 6.33204 772.753 6.16198 774.08 5.99575L774.205 6.988C775.531 6.82191 776.847 6.65965 778.155 6.50122L778.034 5.50848C779.376 5.34592 780.707 5.18739 782.029 5.03289L782.145 6.02612C783.506 5.86709 784.856 5.71236 786.195 5.56192L786.083 4.56817C787.424 4.41757 788.754 4.27126 790.074 4.12928L790.181 5.12353C791.499 4.98173 792.806 4.84423 794.102 4.71109L794 3.71631C795.376 3.57494 796.74 3.43845 798.092 3.30687L798.189 4.30216C799.54 4.1706 800.879 4.04394 802.205 3.92221L802.114 2.92641C803.442 2.80451 804.758 2.68754 806.061 2.57553L806.147 3.57185C807.511 3.45457 808.862 3.34273 810.198 3.23635L810.119 2.2395C811.482 2.131 812.83 2.02818 814.164 1.93105L814.237 2.92842C815.568 2.83144 816.885 2.74018 818.186 2.65463L818.121 1.65678C819.489 1.56682 820.841 1.48316 822.177 1.40583L822.235 2.40414C823.6 2.32511 824.947 2.25269 826.277 2.18694L826.228 1.18818C827.56 1.12229 828.875 1.06306 830.172 1.01054L830.213 2.00973C831.595 1.95376 832.957 1.90543 834.298 1.86478L834.268 0.865234C835.631 0.823893 836.973 0.790472 838.294 0.764976L838.314 1.76478C839.654 1.73891 840.973 1.72124 842.269 1.71182L842.261 0.711844C843.657 0.701711 845.026 0.701116 846.37 0.710117L846.363 1.7101C847.701 1.71906 849.013 1.73758 850.298 1.7657L850.32 0.765947C851.717 0.79654 853.083 0.838442 854.418 0.891733L854.378 1.89093C855.732 1.94504 857.053 2.0109 858.341 2.08859L858.401 1.0904C859.791 1.1743 861.142 1.27194 862.454 1.3834L862.369 2.3798C863.727 2.49517 865.042 2.62537 866.312 2.77045L866.426 1.77692C867.825 1.93669 869.172 2.11449 870.467 2.31043L870.317 3.29918C871.65 3.50088 872.925 3.72171 874.14 3.9617L874.334 2.98063C875.752 3.26048 877.092 3.56651 878.355 3.89897L878.101 4.86601C879.454 5.2224 880.711 5.60831 881.871 6.02332L882.208 5.08183C883.554 5.56383 884.779 6.08648 885.88 6.65017L885.424 7.54022C886.671 8.17891 887.734 8.86337 888.616 9.58974L889.252 8.81763Z" stroke="#6B6B6B" stroke-width="2" stroke-dasharray="4 4"/>
</svg>
