<svg width="72" height="72" viewBox="0 0 72 72" fill="none" xmlns="http://www.w3.org/2000/svg">
<mask id="mask0_42_611" style="mask-type:alpha" maskUnits="userSpaceOnUse" x="0" y="0" width="72" height="72">
<rect width="72" height="72" rx="16" fill="#ADADAD"/>
</mask>
<g mask="url(#mask0_42_611)">
<g clip-path="url(#clip0_42_611)">
<path d="M59.7558 0H12.074C4.85344 0 -1 5.85344 -1 13.074V58.91C-1 66.1306 4.85344 71.9841 12.074 71.9841H59.7558C66.9764 71.9841 72.8298 66.1306 72.8298 58.91V13.074C72.8298 5.85344 66.9764 0 59.7558 0Z" fill="#330000"/>
<path d="M34.7768 43.1996H23.3363L21.0076 50.4319C20.943 50.7026 20.6938 50.8903 20.4139 50.878H14.6182C14.2891 50.878 14.1722 50.6965 14.2706 50.3335L24.1761 21.8044C24.2745 21.506 24.373 21.1676 24.4745 20.7892C24.6037 20.1278 24.6714 19.4572 24.6714 18.7835C24.6468 18.6174 24.7637 18.4605 24.9329 18.4359C24.9605 18.4328 24.9913 18.4328 25.019 18.4359H32.8942C33.1249 18.4359 33.2572 18.519 33.291 18.6851L44.5347 50.3827C44.6331 50.7118 44.5347 50.878 44.2363 50.878H37.7977C37.5701 50.9026 37.3578 50.7549 37.3024 50.5303L34.7768 43.1996V43.1996ZM25.1174 36.958H32.9434C32.7465 36.2966 32.5127 35.5552 32.2512 34.7277C31.9867 33.9032 31.7067 33.0204 31.4083 32.079C31.1099 31.1377 30.8146 30.1964 30.5162 29.255C30.2178 28.3137 29.9471 27.4062 29.698 26.5326C29.4488 25.6589 29.2273 24.856 29.0304 24.13H28.9812C28.7013 25.4682 28.3567 26.791 27.9414 28.0922C27.48 29.578 27.0093 31.0977 26.5294 32.6481C26.0495 34.2016 25.5789 35.6382 25.1174 36.958V36.958Z" fill="#FF9A00"/>
<path d="M51.2192 23.684C50.1979 23.724 49.2073 23.3302 48.4967 22.595C47.7892 21.829 47.4139 20.8139 47.457 19.771C47.42 18.7374 47.8261 17.7376 48.5705 17.0209C49.3088 16.3133 50.2963 15.9288 51.3207 15.9565C52.5081 15.9565 53.4433 16.3102 54.1201 17.0209C54.8092 17.7653 55.1752 18.7559 55.1352 19.771C55.1783 20.8169 54.7938 21.8352 54.0709 22.595C53.3141 23.3395 52.2836 23.7363 51.2223 23.684H51.2192ZM47.8015 50.3796V26.7079C47.8015 26.4095 47.9338 26.2619 48.1983 26.2619H54.2893C54.5538 26.2619 54.6861 26.4095 54.6861 26.7079V50.3827C54.6861 50.7119 54.5538 50.878 54.2893 50.878H48.2475C47.9491 50.878 47.8015 50.7119 47.8015 50.3827V50.3796Z" fill="#FF9A00"/>
</g>
</g>
<defs>
<clipPath id="clip0_42_611">
<rect width="73.8298" height="71.9841" fill="white" transform="translate(-1)"/>
</clipPath>
</defs>
</svg>
