<svg width="72" height="72" viewBox="0 0 72 72" fill="none" xmlns="http://www.w3.org/2000/svg">
<mask id="mask0_42_612" style="mask-type:alpha" maskUnits="userSpaceOnUse" x="0" y="0" width="72" height="72">
<rect width="72" height="72" rx="16" fill="#ADADAD"/>
</mask>
<g mask="url(#mask0_42_612)">
<g clip-path="url(#clip0_42_612)">
<path d="M59.7558 0H12.074C4.85344 0 -1 5.85344 -1 13.074V58.91C-1 66.1306 4.85344 71.9841 12.074 71.9841H59.7558C66.9764 71.9841 72.8298 66.1306 72.8298 58.91V13.074C72.8298 5.85344 66.9764 0 59.7558 0Z" fill="#001E36"/>
<path d="M15.6242 50.4812V18.8328C15.6242 18.6021 15.7226 18.4852 15.9226 18.4852C16.4517 18.4852 16.9316 18.476 17.6576 18.4606C18.3836 18.4452 19.168 18.4267 20.0109 18.4114C20.8538 18.396 21.7459 18.3775 22.6841 18.3621C23.6255 18.3468 24.5576 18.3375 25.4835 18.3375C27.9937 18.3375 30.1071 18.6513 31.8237 19.2789C33.3741 19.8018 34.7861 20.6662 35.9581 21.8044C36.9518 22.7919 37.7208 23.9824 38.213 25.296C38.6775 26.5726 38.9113 27.9231 38.9052 29.2828C38.9052 31.9253 38.293 34.1033 37.0717 35.8198C35.8412 37.5425 34.1124 38.8499 32.119 39.5605C30.0394 40.3357 27.7261 40.6003 25.1851 40.6003C24.4591 40.6003 23.9454 40.5911 23.6501 40.5757C23.3517 40.5603 22.9087 40.5511 22.3119 40.5511V50.432C22.3427 50.6473 22.1919 50.8472 21.9766 50.878C21.9397 50.8842 21.9028 50.8842 21.8659 50.878H15.9687C15.738 50.878 15.6211 50.7457 15.6211 50.4812H15.6242ZM22.3119 24.4285V34.7493C22.7395 34.7831 23.1364 34.7985 23.4993 34.7985H25.1328C26.3356 34.7954 27.5292 34.6047 28.6736 34.2325C29.6549 33.9402 30.5316 33.3742 31.1992 32.599C31.8421 31.8392 32.1651 30.784 32.1651 29.4305C32.1897 28.4737 31.9406 27.5263 31.4484 26.7049C30.9285 25.9112 30.1748 25.2991 29.295 24.9453C28.1445 24.4992 26.914 24.287 25.6804 24.327C24.8867 24.327 24.1854 24.3362 23.5763 24.3516C22.9641 24.37 22.5426 24.3946 22.3119 24.4254V24.4285Z" fill="#31A8FF"/>
<path d="M58.0549 32.8728C57.1228 32.396 56.1323 32.0453 55.1079 31.8331C53.9789 31.5747 52.8253 31.4424 51.6656 31.4362C51.038 31.4178 50.4135 31.4947 49.8075 31.6577C49.423 31.7438 49.0815 31.9623 48.8416 32.276C48.6816 32.5283 48.5955 32.8205 48.5955 33.1189C48.6047 33.4081 48.7093 33.688 48.8939 33.9126C49.183 34.251 49.5368 34.5278 49.9336 34.7309C50.6412 35.1123 51.3672 35.4507 52.1116 35.746C53.7728 36.3028 55.3632 37.0596 56.8429 38.0009C57.8519 38.6377 58.6855 39.5144 59.27 40.5511C59.7622 41.5355 60.0083 42.6214 59.9868 43.7197C60.0176 45.1716 59.6023 46.5959 58.7994 47.8049C57.938 49.0323 56.7444 49.986 55.3571 50.5551C53.8528 51.2165 51.9978 51.5456 49.786 51.5456C48.3801 51.561 46.9774 51.4256 45.6023 51.1488C44.5164 50.9488 43.4612 50.6166 42.4584 50.1582C42.2369 50.0444 42.1015 49.8137 42.1108 49.5645V44.2149C42.0985 44.1073 42.1477 44.0027 42.2338 43.9411C42.3199 43.8919 42.4307 43.9012 42.5076 43.9658C43.6919 44.6641 44.9778 45.1747 46.3221 45.4762C47.5065 45.7715 48.7185 45.9315 49.9367 45.9469C51.0934 45.9469 51.9424 45.7992 52.4869 45.5008C52.9883 45.2701 53.3114 44.7656 53.3052 44.2119C53.3052 43.7843 53.056 43.369 52.5638 42.9752C52.0686 42.5784 51.0626 42.1016 49.543 41.5386C47.9864 40.9972 46.5129 40.2466 45.1593 39.3114C44.1903 38.6377 43.3935 37.7487 42.8306 36.712C42.3446 35.7368 42.0985 34.657 42.1138 33.5681C42.1138 32.2576 42.4707 30.9717 43.1536 29.855C43.9319 28.6245 45.0516 27.6432 46.3744 27.031C47.8264 26.3051 49.6445 25.9421 51.8225 25.9421C53.0991 25.9328 54.3727 26.022 55.637 26.2158C56.5506 26.3327 57.4458 26.5727 58.2918 26.9326C58.4271 26.9726 58.5379 27.0741 58.5902 27.2064C58.624 27.3264 58.6394 27.4525 58.6394 27.5786V32.5806C58.6456 32.7006 58.5902 32.8113 58.4917 32.879C58.3564 32.9467 58.1995 32.9467 58.0641 32.879L58.0549 32.8728Z" fill="#31A8FF"/>
</g>
</g>
<defs>
<clipPath id="clip0_42_612">
<rect width="73.8298" height="71.9841" fill="white" transform="translate(-1)"/>
</clipPath>
</defs>
</svg>
