<svg width="72" height="72" viewBox="0 0 72 72" fill="none" xmlns="http://www.w3.org/2000/svg">
<mask id="mask0_42_608" style="mask-type:alpha" maskUnits="userSpaceOnUse" x="0" y="0" width="72" height="72">
<rect width="72" height="72" rx="16" fill="#ADADAD"/>
</mask>
<g mask="url(#mask0_42_608)">
<g clip-path="url(#clip0_42_608)">
<path d="M62.3024 -1H10.7232C4.24865 -1 -1 4.11744 -1 10.4301V60.7199C-1 67.0326 4.24865 72.15 10.7232 72.15H62.3024C68.777 72.15 74.0256 67.0326 74.0256 60.7199V10.4301C74.0256 4.11744 68.777 -1 62.3024 -1Z" fill="#00005B"/>
<path d="M17.8409 51.4179H11.9863C11.7181 51.4179 11.5981 51.2734 11.5981 50.9878V20.25C11.5981 19.9644 11.6917 19.8061 11.891 19.8061L14.866 19.7408H22.275C24.6606 19.6754 27.0356 20.0607 29.2694 20.8779C31.0145 21.5334 32.5196 22.6791 33.5977 24.169C34.6475 25.7397 35.1751 27.5856 35.1134 29.4591C35.1257 30.7115 34.8557 31.9519 34.3229 33.0908C33.7671 34.1523 33.0066 35.1019 32.0855 35.8864C31.1415 36.7208 30.0528 37.3848 28.8706 37.8459C29.1918 38.264 29.6611 38.8919 30.2099 39.7538C30.7586 40.6157 31.4556 41.5567 32.1649 42.601L34.2946 45.7613C35.004 46.8331 35.6339 47.812 36.2373 48.7135C36.839 49.6149 37.2554 50.3203 37.5766 50.8433C37.663 50.9517 37.7054 51.0858 37.6966 51.2218C37.6966 51.3301 37.6083 51.4179 37.4972 51.4196C37.4883 51.4196 37.4778 51.4196 37.4689 51.4179H30.3281C30.1816 51.4454 30.0317 51.4454 29.887 51.4179C29.7846 51.3663 29.6964 51.2889 29.6329 51.196C29.2712 50.6867 28.8159 50.0072 28.2936 49.1711C27.7714 48.335 27.1679 47.3939 26.5645 46.3634C25.961 45.3312 25.3452 44.3128 24.7294 43.3201C24.1136 42.3275 23.5772 41.4122 23.122 40.6157C22.9614 40.3731 22.7673 40.1529 22.545 39.962C22.3668 39.8364 22.148 39.7762 21.9292 39.7899H18.2308V51.048C18.2467 51.2372 18.1038 51.4024 17.9097 51.4179C17.8867 51.4196 17.8656 51.4179 17.8426 51.4179H17.8409ZM18.2291 34.0181H22.1003C23.2137 34.0491 24.3236 33.8942 25.3823 33.5605C26.2151 33.3059 26.9491 32.8087 27.4837 32.136C28.0007 31.4324 28.2636 30.5842 28.2336 29.7189C28.336 28.4235 27.6849 27.1813 26.545 26.5052C25.1793 25.7844 23.6372 25.4421 22.0844 25.5143H18.2661L18.2255 34.0164L18.2291 34.0181Z" fill="#9999FF"/>
<path d="M61.2085 27.7353V48.1646C61.1891 48.7152 61.2191 49.2657 61.3021 49.811C61.3691 50.205 61.4079 50.6007 61.422 50.9998C61.4485 51.3267 61.3409 51.3783 61.0868 51.3783H55.7281C55.4722 51.4058 55.2287 51.2682 55.1246 51.0394C55.0858 50.7882 55.0276 50.5388 54.9482 50.2962C54.9076 50.0502 54.8864 49.8024 54.8811 49.553C53.9071 50.4132 52.7496 51.0514 51.4916 51.4213C50.3764 51.7138 49.2295 51.8669 48.0755 51.8789C46.9374 51.8927 45.8064 51.7206 44.7265 51.3697C43.7067 51.0514 42.7856 50.4906 42.0463 49.7371C41.2541 48.9061 40.6594 47.9135 40.3065 46.8331C39.8619 45.4465 39.6537 43.9996 39.6907 42.5476V27.7886C39.6678 27.5959 39.8089 27.4205 40.0066 27.3964C40.0348 27.3929 40.0648 27.3929 40.093 27.3964H46.1893C46.3799 27.3723 46.5545 27.503 46.5792 27.6888C46.5845 27.7215 46.5828 27.7559 46.5792 27.7886V41.8044C46.5369 42.9072 46.8722 43.991 47.5321 44.8873C48.2784 45.7114 49.3848 46.1346 50.507 46.0245C51.2163 46.0297 51.9203 45.9041 52.5838 45.6581C53.2102 45.4121 53.7977 45.0783 54.3253 44.6654V27.6837C54.3253 27.4617 54.4718 27.3448 54.7664 27.3448H60.8627C61.0303 27.3138 61.1909 27.4222 61.2227 27.5856C61.2315 27.6355 61.228 27.6888 61.2121 27.737L61.2085 27.7353Z" fill="#9999FF"/>
</g>
</g>
<defs>
<clipPath id="clip0_42_608">
<rect width="75.0256" height="73.15" fill="white" transform="translate(-1 -1)"/>
</clipPath>
</defs>
</svg>
