<svg width="72" height="72" viewBox="0 0 72 72" fill="none" xmlns="http://www.w3.org/2000/svg">
<mask id="mask0_42_613" style="mask-type:alpha" maskUnits="userSpaceOnUse" x="0" y="0" width="72" height="72">
<rect width="72" height="72" rx="16" fill="#ADADAD"/>
</mask>
<g mask="url(#mask0_42_613)">
<g clip-path="url(#clip0_42_613)">
<path d="M59.8958 0H12.1042C4.86694 0 -1 5.86694 -1 13.1042V59.0458C-1 66.2831 4.86694 72.15 12.1042 72.15H59.8958C67.1331 72.15 73 66.2831 73 59.0458V13.1042C73 5.86694 67.1331 0 59.8958 0Z" fill="#470137"/>
<path d="M37.9023 18.9747L28.6677 34.2157L38.5467 50.4001C38.6115 50.5142 38.6269 50.6468 38.5961 50.7732C38.5622 50.8903 38.4481 50.8163 38.2477 50.8503H31.1992C30.7027 50.8503 30.3543 50.8317 30.157 50.5018C29.4941 49.2099 28.8312 47.9303 28.1713 46.6538C27.5084 45.3804 26.8054 44.0823 26.0623 42.7565C25.3162 41.4337 24.5823 40.0925 23.8547 38.7358H23.8053C23.1424 40.0586 22.4548 41.3844 21.7457 42.7072C21.0334 44.0299 20.3304 45.3465 19.6367 46.6538C18.9429 47.9612 18.2307 49.2593 17.503 50.5512C17.3704 50.8503 17.1392 50.8811 16.8092 50.8811H10.0074C9.87483 50.8811 9.80083 50.9335 9.78541 50.8009C9.76691 50.6807 9.79466 50.5573 9.85941 50.4525L19.4393 34.7152L10.1061 18.9285C10.0074 18.7959 9.98891 18.688 10.0567 18.6047C10.1307 18.5184 10.2417 18.4722 10.3558 18.4814H17.355C17.5061 18.4722 17.6602 18.4999 17.8021 18.5554C17.9192 18.6232 18.0241 18.7157 18.1012 18.8298C18.6962 20.1526 19.3592 21.4784 20.0868 22.8012C20.8145 24.1239 21.5514 25.4312 22.2945 26.7232C23.0407 28.0151 23.7252 29.3224 24.3542 30.6452H24.4035C25.0664 29.2885 25.7355 27.9658 26.4138 26.6738C27.0922 25.3819 27.7859 24.0838 28.4982 22.7765C29.2104 21.4692 29.8949 20.1711 30.5578 18.8792C30.5948 18.7558 30.6627 18.6448 30.7552 18.5554C30.8785 18.4937 31.0142 18.466 31.1529 18.4814H37.6557C37.8067 18.4444 37.9609 18.5369 38.001 18.688C38.0287 18.7959 37.9887 18.9069 37.9054 18.9778L37.9023 18.9747Z" fill="#FF61F6"/>
<path d="M52.1474 51.4886C49.8626 51.5225 47.5994 51.0476 45.5213 50.098C43.5849 49.2007 41.9662 47.7392 40.8809 45.9046C39.7554 44.0361 39.1912 41.6928 39.1943 38.8808C39.1758 36.6022 39.7585 34.3606 40.8809 32.3781C42.0402 30.3585 43.7422 28.7089 45.7957 27.6112C47.9479 26.4211 50.544 25.8229 53.5904 25.8229C53.7569 25.8229 53.9696 25.8321 54.2348 25.8476C54.4999 25.8661 54.8144 25.8907 55.1783 25.9216V16.1412C55.1783 15.91 55.2769 15.7928 55.4774 15.7928H61.7334C61.8784 15.7712 62.0109 15.873 62.0325 16.0148C62.0356 16.0395 62.0356 16.0641 62.0325 16.0888V45.4267C62.0325 45.991 62.0572 46.6015 62.1065 47.2644C62.1559 47.9273 62.199 48.5224 62.2299 49.0527C62.2422 49.2624 62.125 49.4597 61.9308 49.5491C60.3182 50.2213 58.6378 50.7208 56.9173 51.0384C55.3448 51.3282 53.7507 51.4793 52.1504 51.4855L52.1474 51.4886ZM55.1752 45.3342V31.783C54.9069 31.709 54.6325 31.6596 54.355 31.635C54.0159 31.6011 53.6767 31.5856 53.3375 31.5856C52.1319 31.5733 50.9418 31.8446 49.8626 32.3811C48.8112 32.9053 47.9139 33.6916 47.2572 34.6659C46.5789 35.6587 46.2397 36.9661 46.2397 38.5879C46.215 39.6701 46.3908 40.7462 46.7608 41.7637C47.0599 42.5839 47.5347 43.3301 48.1514 43.9467C48.7403 44.5171 49.4556 44.9426 50.2357 45.1893C51.062 45.4576 51.9254 45.5901 52.7918 45.5871C53.2543 45.5871 53.6859 45.5716 54.0837 45.5377C54.4537 45.51 54.8206 45.4421 55.1752 45.3404V45.3342Z" fill="#FF61F6"/>
</g>
</g>
<defs>
<clipPath id="clip0_42_613">
<rect width="74" height="72.15" fill="white" transform="translate(-1)"/>
</clipPath>
</defs>
</svg>
