<svg width="1920" height="1415" viewBox="0 0 1920 1415" fill="none" xmlns="http://www.w3.org/2000/svg">
<line x1="26" y1="238" x2="26.0001" y2="1415" stroke="#F8CDFC" stroke-width="4"/>
<line x1="338" y1="238" x2="338" y2="1415" stroke="#F8CDFC" stroke-width="4"/>
<line x1="650" y1="238" x2="650" y2="1415" stroke="#F8CDFC" stroke-width="4"/>
<line x1="963" y1="238" x2="963" y2="1415" stroke="#F8CDFC" stroke-width="4"/>
<line x1="1275" y1="238" x2="1275" y2="1415" stroke="#F8CDFC" stroke-width="4"/>
<line x1="182" y1="238" x2="182" y2="1415" stroke="#F8CDFC" stroke-width="4"/>
<line x1="494" y1="238" x2="494" y2="1415" stroke="#F8CDFC" stroke-width="4"/>
<line x1="806" y1="238" x2="806" y2="1415" stroke="#F8CDFC" stroke-width="4"/>
<line x1="1119" y1="238" x2="1119" y2="1415" stroke="#F8CDFC" stroke-width="4"/>
<line x1="1431" y1="238" x2="1431" y2="1415" stroke="#F8CDFC" stroke-width="4"/>
<line x1="104" y1="238" x2="104" y2="1415" stroke="#F8CDFC" stroke-width="4"/>
<line x1="416" y1="238" x2="416" y2="1415" stroke="#F8CDFC" stroke-width="4"/>
<line x1="728" y1="238" x2="728" y2="1415" stroke="#F8CDFC" stroke-width="4"/>
<line x1="1041" y1="238" x2="1041" y2="1415" stroke="#F8CDFC" stroke-width="4"/>
<line x1="1353" y1="238" x2="1353" y2="1415" stroke="#F8CDFC" stroke-width="4"/>
<line x1="260" y1="238" x2="260" y2="1415" stroke="#F8CDFC" stroke-width="4"/>
<line x1="572" y1="238" x2="572" y2="1415" stroke="#F8CDFC" stroke-width="4"/>
<line x1="884" y1="238" x2="884" y2="1415" stroke="#F8CDFC" stroke-width="4"/>
<line x1="1197" y1="238" x2="1197" y2="1415" stroke="#F8CDFC" stroke-width="4"/>
<line x1="1509" y1="238" x2="1509" y2="1415" stroke="#F8CDFC" stroke-width="4"/>
<line x1="1587" y1="238" x2="1587" y2="1415" stroke="#F8CDFC" stroke-width="4"/>
<line x1="1899" y1="238" x2="1899" y2="1415" stroke="#F8CDFC" stroke-width="4"/>
<line x1="1743" y1="238" x2="1743" y2="1415" stroke="#F8CDFC" stroke-width="4"/>
<line x1="1665" y1="238" x2="1665" y2="1415" stroke="#F8CDFC" stroke-width="4"/>
<line x1="1821" y1="238" x2="1821" y2="1415" stroke="#F8CDFC" stroke-width="4"/>
<line x1="-6.3573e-08" y1="1251" x2="1921" y2="1251" stroke="#F8CDFC" stroke-width="4"/>
<line x1="-6.3573e-08" y1="938" x2="1921" y2="938" stroke="#F8CDFC" stroke-width="4"/>
<line x1="-6.3573e-08" y1="626" x2="1921" y2="626" stroke="#F8CDFC" stroke-width="4"/>
<line x1="-6.3573e-08" y1="1407" x2="1921" y2="1407" stroke="#F8CDFC" stroke-width="4"/>
<line x1="-6.3573e-08" y1="1095" x2="1921" y2="1095" stroke="#F8CDFC" stroke-width="4"/>
<line x1="-6.3573e-08" y1="782" x2="1921" y2="782" stroke="#F8CDFC" stroke-width="4"/>
<line x1="-6.3573e-08" y1="470" x2="1921" y2="470" stroke="#F8CDFC" stroke-width="4"/>
<line x1="-6.3573e-08" y1="1173" x2="1921" y2="1173" stroke="#F8CDFC" stroke-width="4"/>
<line x1="-6.3573e-08" y1="860" x2="1921" y2="860" stroke="#F8CDFC" stroke-width="4"/>
<line x1="-6.3573e-08" y1="548" x2="1921" y2="548" stroke="#F8CDFC" stroke-width="4"/>
<line x1="-6.3573e-08" y1="1329" x2="1921" y2="1329" stroke="#F8CDFC" stroke-width="4"/>
<line x1="-6.3573e-08" y1="1017" x2="1921" y2="1017" stroke="#F8CDFC" stroke-width="4"/>
<line x1="-6.3573e-08" y1="704" x2="1921" y2="704" stroke="#F8CDFC" stroke-width="4"/>
<line x1="-6.3573e-08" y1="392" x2="1921" y2="392" stroke="#F8CDFC" stroke-width="4"/>
<line x1="-6.3573e-08" y1="314" x2="1921" y2="314" stroke="#F8CDFC" stroke-width="4"/>
<line x1="-6.3573e-08" y1="2" x2="1921" y2="1.99994" stroke="#F8CDFC" stroke-width="4"/>
<line x1="-6.3573e-08" y1="158" x2="1921" y2="158" stroke="#F8CDFC" stroke-width="4"/>
<line x1="-6.3573e-08" y1="236" x2="1921" y2="236" stroke="#F8CDFC" stroke-width="4"/>
<line x1="-6.3573e-08" y1="80" x2="1921" y2="79.9999" stroke="#F8CDFC" stroke-width="4"/>
</svg>
