<?xml version="1.0" encoding="UTF-8"?><svg id="_레이어_2" xmlns="http://www.w3.org/2000/svg" viewBox="0 0 766.37 143.06"><defs><style>.cls-1{fill:#4756df;}.cls-2{fill:#ffb7d5;}.cls-3{fill:none;stroke:#30242a;stroke-miterlimit:10;stroke-width:1.5px;}.cls-4{fill:#f5ebdd;}.cls-5{fill:#30242a;}</style></defs><g id="Layer_1"><g><g><ellipse class="cls-2" cx="335.96" cy="95.62" rx="12.72" ry="16.61" transform="translate(168.87 402.36) rotate(-77.31)"/><ellipse class="cls-4" cx="346.28" cy="98.07" rx="7.03" ry="18.06" transform="translate(-12.7 123.74) rotate(-19.9)"/><ellipse class="cls-4" cx="335.87" cy="104.42" rx="5.84" ry="21.74" transform="translate(98.79 364.24) rotate(-64.89)"/><ellipse class="cls-5" cx="350.33" cy="112.17" rx="5.85" ry="7.55" transform="translate(127.47 404.82) rotate(-70.46)"/></g><g><path class="cls-3" d="M500.19,95.44s21.53,30.58,21.93,44.35"/><g><ellipse class="cls-1" cx="488.02" cy="91.65" rx="4.74" ry="15.28" transform="translate(280.78 542.89) rotate(-75.97)"/><ellipse class="cls-1" cx="500.63" cy="81.06" rx="4.74" ry="15.28" transform="translate(-3.33 24.29) rotate(-2.77)"/><ellipse class="cls-1" cx="492.55" cy="84.56" rx="4.74" ry="15.28" transform="translate(58.14 331.62) rotate(-39.37)"/><ellipse class="cls-5" cx="499.98" cy="93.55" rx="4.59" ry="5.49" transform="translate(54.12 338.37) rotate(-39.37)"/></g><ellipse class="cls-5" cx="523.25" cy="94.8" rx="19.85" ry="7.31" transform="translate(179.52 500.55) rotate(-60)"/></g><path class="cls-3" d="M371.58,137.88s-18.42-15.33-21.65-24.36"/><g><ellipse class="cls-1" cx="165.48" cy="98.18" rx="15.28" ry="4.74" transform="translate(58.52 258.13) rotate(-86.91)"/><ellipse class="cls-1" cx="178.27" cy="108.55" rx="15.28" ry="4.74" transform="translate(-20.65 45.34) rotate(-13.71)"/><ellipse class="cls-1" cx="173.31" cy="101.29" rx="15.28" ry="4.74" transform="translate(-15.31 169.96) rotate(-50.31)"/><ellipse class="cls-5" cx="165.89" cy="110.28" rx="5.49" ry="4.59" transform="translate(-24.92 167.5) rotate(-50.31)"/></g><g><path class="cls-3" d="M127.2,61.17s4.13,37.57,12.89,47.65"/><g><ellipse class="cls-4" cx="113.11" cy="43.36" rx="7.19" ry="23.17" transform="translate(-3.55 75.99) rotate(-36.6)"/><ellipse class="cls-4" cx="138.08" cy="43.08" rx="23.17" ry="7.19" transform="translate(21.17 128.25) rotate(-53.4)"/><ellipse class="cls-4" cx="125.25" cy="39.41" rx="7.19" ry="23.17"/><ellipse class="cls-5" cx="125.31" cy="57.08" rx="6.97" ry="8.33"/></g><ellipse class="cls-5" cx="123.77" cy="91.33" rx="4.76" ry="12.52" transform="translate(-24.4 132.63) rotate(-52)"/></g><g><path class="cls-3" d="M595.11,97.84s-7.39,23.75-15.6,28.87"/><g><ellipse class="cls-4" cx="608.5" cy="88.56" rx="16.55" ry="5.51" transform="translate(59.58 365.69) rotate(-35.07)"/><ellipse class="cls-4" cx="588.19" cy="84.31" rx="5.32" ry="17.13" transform="translate(54.84 346.23) rotate(-34.31)"/><ellipse class="cls-4" cx="599.03" cy="84.01" rx="15.26" ry="5.97" transform="translate(422.49 662.56) rotate(-81.01)"/><ellipse class="cls-5" cx="597.09" cy="95.49" rx="5.46" ry="5.82" transform="translate(244.02 586.38) rotate(-63.36)"/></g><ellipse class="cls-5" cx="594.69" cy="118" rx="9.54" ry="3.42" transform="translate(-6.03 199.95) rotate(-18.99)"/></g><g><path class="cls-3" d="M77.77,58.7s20.91,55.86,16.26,78.21"/><g><ellipse class="cls-1" cx="50.13" cy="45.83" rx="9.76" ry="31.45" transform="translate(-13.84 68.64) rotate(-62.06)"/><ellipse class="cls-1" cx="80.56" cy="30.91" rx="31.45" ry="9.76" transform="translate(34.66 103.98) rotate(-78.86)"/><ellipse class="cls-1" cx="62.69" cy="33.89" rx="9.76" ry="31.45" transform="translate(-8.48 30.24) rotate(-25.46)"/><ellipse class="cls-5" cx="73.08" cy="55.52" rx="9.45" ry="11.3" transform="translate(-16.77 36.81) rotate(-25.46)"/></g><ellipse class="cls-5" cx="98.53" cy="75.65" rx="19.85" ry="7.31" transform="translate(-16.25 123.16) rotate(-60)"/></g><g><path class="cls-3" d="M704.41,67.53s-18.13,34.35-17.79,50.44"/><g><ellipse class="cls-1" cx="735.77" cy="55.13" rx="31.45" ry="9.76" transform="translate(8.59 180.03) rotate(-14.03)"/><ellipse class="cls-1" cx="709.82" cy="33.34" rx="31.45" ry="9.76" transform="translate(642.22 740.72) rotate(-87.23)"/><ellipse class="cls-1" cx="726.44" cy="40.52" rx="31.45" ry="9.76" transform="translate(234.32 576.41) rotate(-50.63)"/><ellipse class="cls-5" cx="711.16" cy="59.02" rx="11.3" ry="9.45" transform="translate(214.43 571.36) rotate(-50.63)"/></g><ellipse class="cls-5" cx="685.97" cy="67.95" rx="7.31" ry="19.85" transform="translate(57.93 352.09) rotate(-30)"/></g><ellipse class="cls-5" cx="699.03" cy="99.17" rx="9.92" ry="3.65" transform="translate(87.13 451.39) rotate(-38)"/><ellipse class="cls-5" cx="350.33" cy="134.72" rx="5.8" ry="15.75" transform="translate(196.48 477.07) rotate(-86.84)"/><g><path class="cls-3" d="M384.31,94.72s3.8,37.21,12.54,47.86"/><g><ellipse class="cls-1" cx="379.12" cy="80.18" rx="7.19" ry="23.17" transform="translate(-2.38 148.14) rotate(-22.04)"/><ellipse class="cls-1" cx="403.35" cy="86.18" rx="23.17" ry="7.19" transform="translate(35.14 272.03) rotate(-38.84)"/><ellipse class="cls-1" cx="391.86" cy="79.39" rx="23.17" ry="7.19" transform="translate(216.52 438.72) rotate(-75.44)"/><ellipse class="cls-5" cx="387.47" cy="96.52" rx="8.33" ry="6.97" transform="translate(196.66 447.29) rotate(-75.44)"/></g><ellipse class="cls-5" cx="397.04" cy="119.12" rx="11.95" ry="5.03" transform="translate(95.36 403.41) rotate(-60)"/><ellipse class="cls-5" cx="376.78" cy="113.24" rx="5.03" ry="11.95" transform="translate(152.65 436.58) rotate(-72)"/></g><g><path class="cls-3" d="M28.02,78.87s42.55,41.8,47.78,64.02"/><g><ellipse class="cls-2" cx="17.84" cy="78.28" rx="15.69" ry="17.69" transform="translate(-60.53 60.83) rotate(-64.61)"/><ellipse class="cls-1" cx="28.48" cy="76.38" rx="7.19" ry="23.17" transform="translate(-43.62 38.35) rotate(-41.74)"/><ellipse class="cls-1" cx="23.07" cy="88.58" rx="7.19" ry="23.17" transform="translate(-67.31 103.06) rotate(-84.5)"/><ellipse class="cls-5" cx="40.59" cy="90.96" rx="6.97" ry="8.33" transform="translate(-58.39 79.86) rotate(-59.56)"/></g><ellipse class="cls-5" cx="45.28" cy="113.9" rx="14.19" ry="5.39" transform="translate(-3.95 1.65) rotate(-2)"/></g></g></g></svg>