<svg width="72" height="72" viewBox="0 0 72 72" fill="none" xmlns="http://www.w3.org/2000/svg">
<mask id="mask0_42_610" style="mask-type:alpha" maskUnits="userSpaceOnUse" x="0" y="0" width="72" height="72">
<rect width="72" height="72" rx="16" fill="#ADADAD"/>
</mask>
<g mask="url(#mask0_42_610)">
<g clip-path="url(#clip0_42_610)">
<path d="M59.7558 0H12.074C4.85344 0 -1 5.85344 -1 13.074V58.91C-1 66.1306 4.85344 71.9841 12.074 71.9841H59.7558C66.9764 71.9841 72.8298 66.1306 72.8298 58.91V13.074C72.8298 5.85344 66.9764 0 59.7558 0Z" fill="#49021F"/>
<path d="M25.8125 18.8327V50.3827C25.8125 50.7118 25.6648 50.878 25.3664 50.878H19.3739C19.1093 50.878 18.9771 50.7118 18.9771 50.3827V18.8327C18.9771 18.5682 19.1247 18.4359 19.4231 18.4359H25.4156C25.6064 18.4082 25.7848 18.5405 25.8125 18.7343C25.8186 18.7681 25.8186 18.7989 25.8125 18.8327Z" fill="#FF3366"/>
<path d="M43.5438 51.3702C41.2643 51.404 39.0064 50.9303 36.933 49.9828C35.0011 49.0876 33.3861 47.6295 32.3032 45.7991C31.1804 43.9349 30.6175 41.597 30.6205 38.7914C30.6021 36.5181 31.1835 34.2817 32.3032 32.3037C33.4599 30.2887 35.158 28.6429 37.2068 27.5478C39.354 26.3604 41.9442 25.7636 44.9835 25.7636C45.1496 25.7636 45.3619 25.7728 45.6265 25.7882C45.891 25.8066 46.2048 25.8312 46.5678 25.862V16.1042C46.5678 15.8734 46.6662 15.7565 46.8662 15.7565H53.1079C53.2525 15.735 53.3847 15.8365 53.4063 15.978C53.4093 16.0026 53.4093 16.0273 53.4063 16.0519V45.3223C53.4063 45.8853 53.4309 46.4944 53.4801 47.1557C53.5293 47.8171 53.5724 48.4109 53.6031 48.94C53.6154 49.1492 53.4986 49.346 53.3047 49.4352C51.6959 50.1059 50.0193 50.6042 48.3028 50.9211C46.7339 51.2102 45.1435 51.361 43.5469 51.3671L43.5438 51.3702ZM46.5647 45.23V31.7099C46.2971 31.6361 46.0233 31.5869 45.7464 31.5623C45.408 31.5284 45.0696 31.5131 44.7313 31.5131C43.5285 31.5008 42.341 31.7715 41.2643 32.3067C40.2153 32.8297 39.3202 33.6141 38.6649 34.5862C37.9881 35.5768 37.6498 36.8811 37.6498 38.4992C37.6251 39.579 37.8005 40.6526 38.1696 41.6677C38.468 42.486 38.9418 43.2305 39.557 43.8457C40.1446 44.4148 40.8583 44.8393 41.6366 45.0854C42.461 45.3531 43.3223 45.4853 44.1868 45.4823C44.6482 45.4823 45.0789 45.4669 45.4757 45.4331C45.8449 45.4054 46.2109 45.3377 46.5647 45.2362V45.23Z" fill="#FF3366"/>
</g>
</g>
<defs>
<clipPath id="clip0_42_610">
<rect width="73.8298" height="71.9841" fill="white" transform="translate(-1)"/>
</clipPath>
</defs>
</svg>
