<svg width="72" height="72" viewBox="0 0 72 72" fill="none" xmlns="http://www.w3.org/2000/svg">
<mask id="mask0_42_609" style="mask-type:alpha" maskUnits="userSpaceOnUse" x="0" y="0" width="72" height="72">
<rect width="72" height="72" rx="16" fill="#ADADAD"/>
</mask>
<g mask="url(#mask0_42_609)">
<g clip-path="url(#clip0_42_609)">
<path d="M12.074 0H59.7558C66.9849 0 72.8298 5.84486 72.8298 13.074V58.91C72.8298 66.1392 66.9849 71.9841 59.7558 71.9841H12.074C4.84486 71.9841 -1 66.1392 -1 58.91V13.074C-1 5.84486 4.84486 0 12.074 0Z" fill="#00005B"/>
<path d="M16.5347 50.4811V18.8266C16.5347 18.6112 16.627 18.4882 16.8423 18.4882C17.3653 18.4882 17.8575 18.4882 18.565 18.4574C19.3033 18.4266 20.0723 18.4266 20.9029 18.3959C21.7335 18.3651 22.6256 18.3651 23.5793 18.3344C24.5329 18.3036 25.4558 18.3036 26.3786 18.3036C28.9012 18.3036 30.993 18.6112 32.7157 19.2572C34.2538 19.7802 35.6689 20.6415 36.8379 21.7797C37.8223 22.7641 38.5913 23.9639 39.0835 25.2867C39.545 26.5787 39.7911 27.9015 39.7911 29.2858C39.7911 31.9313 39.1758 34.1155 37.9453 35.8382C36.7148 37.5609 34.9921 38.8529 32.9926 39.5912C30.9007 40.3602 28.5935 40.6371 26.071 40.6371C25.3327 40.6371 24.8405 40.6371 24.5329 40.6063C24.2253 40.5756 23.7946 40.5756 23.2101 40.5756V50.4503C23.2409 50.6657 23.0871 50.8502 22.8717 50.881H16.9038C16.6577 50.881 16.5347 50.7579 16.5347 50.4811V50.4811ZM23.2409 24.4253V34.7615C23.6715 34.7922 24.0715 34.823 24.4406 34.823H26.071C27.2708 34.823 28.4705 34.6384 29.6087 34.2693C30.5931 33.9924 31.4544 33.4079 32.1312 32.6389C32.7772 31.8698 33.0848 30.8239 33.0848 29.4703C33.1156 28.5167 32.8695 27.5631 32.3773 26.7325C31.8544 25.9327 31.1161 25.3174 30.2239 24.979C29.0857 24.5176 27.8552 24.333 26.594 24.3638C25.7942 24.3638 25.0866 24.3638 24.5021 24.3945C23.8869 24.3638 23.4562 24.3945 23.2409 24.4253V24.4253Z" fill="#9999FF"/>
<path d="M44.0977 26.2095H49.4811C49.7887 26.2095 50.0348 26.4248 50.1271 26.7017C50.2194 26.9478 50.2809 27.1939 50.3117 27.4708C50.3732 27.7784 50.4348 28.1168 50.4655 28.4244C50.4963 28.7628 50.527 29.1319 50.527 29.5318C51.4499 28.4552 52.5574 27.563 53.8186 26.8863C55.2337 26.0864 56.8641 25.6865 58.4945 25.6865C58.7098 25.6558 58.8944 25.8096 58.9252 26.0249V32.1466C58.9252 32.3927 58.7714 32.485 58.433 32.485C57.3255 32.4543 56.1873 32.5466 55.1106 32.7927C54.2185 32.9772 53.3572 33.2541 52.5266 33.6232C51.9421 33.9001 51.3884 34.2693 50.9577 34.7615V50.4503C50.9577 50.7579 50.8347 50.881 50.5578 50.881H44.4976C44.2515 50.9117 44.0362 50.7579 44.0054 50.5118V33.3464C44.0054 32.6081 44.0054 31.839 43.9746 31.0392C43.9439 30.2394 43.9439 29.4396 43.9131 28.6397C43.9131 27.9322 43.8516 27.2554 43.7901 26.5479C43.7593 26.3941 43.8516 26.2403 44.0054 26.2095C44.0054 26.1787 44.0669 26.1787 44.0977 26.2095V26.2095Z" fill="#9999FF"/>
</g>
</g>
<defs>
<clipPath id="clip0_42_609">
<rect width="73.8298" height="71.9841" fill="white" transform="translate(-1)"/>
</clipPath>
</defs>
</svg>
