<svg width="1877" height="1177" viewBox="0 0 1877 1177" fill="none" xmlns="http://www.w3.org/2000/svg">
<line x1="2" y1="-8.74228e-08" x2="2.00005" y2="1177" stroke="#F8CDFC" stroke-width="4"/>
<line x1="314" y1="-8.74228e-08" x2="314" y2="1177" stroke="#F8CDFC" stroke-width="4"/>
<line x1="626" y1="-8.74228e-08" x2="626" y2="1177" stroke="#F8CDFC" stroke-width="4"/>
<line x1="939" y1="-8.74228e-08" x2="939" y2="1177" stroke="#F8CDFC" stroke-width="4"/>
<line x1="1251" y1="-8.74228e-08" x2="1251" y2="1177" stroke="#F8CDFC" stroke-width="4"/>
<line x1="158" y1="-8.74228e-08" x2="158" y2="1177" stroke="#F8CDFC" stroke-width="4"/>
<line x1="470" y1="-8.74228e-08" x2="470" y2="1177" stroke="#F8CDFC" stroke-width="4"/>
<line x1="782" y1="-8.74228e-08" x2="782" y2="1177" stroke="#F8CDFC" stroke-width="4"/>
<line x1="1095" y1="-8.74228e-08" x2="1095" y2="1177" stroke="#F8CDFC" stroke-width="4"/>
<line x1="1407" y1="-8.74228e-08" x2="1407" y2="1177" stroke="#F8CDFC" stroke-width="4"/>
<line x1="80" y1="-8.74228e-08" x2="80.0001" y2="1177" stroke="#F8CDFC" stroke-width="4"/>
<line x1="392" y1="-8.74228e-08" x2="392" y2="1177" stroke="#F8CDFC" stroke-width="4"/>
<line x1="704" y1="-8.74228e-08" x2="704" y2="1177" stroke="#F8CDFC" stroke-width="4"/>
<line x1="1017" y1="-8.74228e-08" x2="1017" y2="1177" stroke="#F8CDFC" stroke-width="4"/>
<line x1="1329" y1="-8.74228e-08" x2="1329" y2="1177" stroke="#F8CDFC" stroke-width="4"/>
<line x1="236" y1="-8.74228e-08" x2="236" y2="1177" stroke="#F8CDFC" stroke-width="4"/>
<line x1="548" y1="-8.74228e-08" x2="548" y2="1177" stroke="#F8CDFC" stroke-width="4"/>
<line x1="860" y1="-8.74228e-08" x2="860" y2="1177" stroke="#F8CDFC" stroke-width="4"/>
<line x1="1173" y1="-8.74228e-08" x2="1173" y2="1177" stroke="#F8CDFC" stroke-width="4"/>
<line x1="1485" y1="-8.74228e-08" x2="1485" y2="1177" stroke="#F8CDFC" stroke-width="4"/>
<line x1="1563" y1="-8.74228e-08" x2="1563" y2="1177" stroke="#F8CDFC" stroke-width="4"/>
<line x1="1875" y1="-8.74228e-08" x2="1875" y2="1177" stroke="#F8CDFC" stroke-width="4"/>
<line x1="1719" y1="-8.74228e-08" x2="1719" y2="1177" stroke="#F8CDFC" stroke-width="4"/>
<line x1="1641" y1="-8.74228e-08" x2="1641" y2="1177" stroke="#F8CDFC" stroke-width="4"/>
<line x1="1797" y1="-8.74228e-08" x2="1797" y2="1177" stroke="#F8CDFC" stroke-width="4"/>
</svg>
