<svg width="1921" height="1409" viewBox="0 0 1921 1409" fill="none" xmlns="http://www.w3.org/2000/svg">
<line x1="-6.3573e-08" y1="1251" x2="1921" y2="1251" stroke="#F8CDFC" stroke-width="4"/>
<line x1="-6.3573e-08" y1="938" x2="1921" y2="938" stroke="#F8CDFC" stroke-width="4"/>
<line x1="-6.3573e-08" y1="626" x2="1921" y2="626" stroke="#F8CDFC" stroke-width="4"/>
<line x1="-6.3573e-08" y1="1407" x2="1921" y2="1407" stroke="#F8CDFC" stroke-width="4"/>
<line x1="-6.3573e-08" y1="1095" x2="1921" y2="1095" stroke="#F8CDFC" stroke-width="4"/>
<line x1="-6.3573e-08" y1="782" x2="1921" y2="782" stroke="#F8CDFC" stroke-width="4"/>
<line x1="-6.3573e-08" y1="470" x2="1921" y2="470" stroke="#F8CDFC" stroke-width="4"/>
<line x1="-6.3573e-08" y1="1173" x2="1921" y2="1173" stroke="#F8CDFC" stroke-width="4"/>
<line x1="-6.3573e-08" y1="860" x2="1921" y2="860" stroke="#F8CDFC" stroke-width="4"/>
<line x1="-6.3573e-08" y1="548" x2="1921" y2="548" stroke="#F8CDFC" stroke-width="4"/>
<line x1="-6.3573e-08" y1="1329" x2="1921" y2="1329" stroke="#F8CDFC" stroke-width="4"/>
<line x1="-6.3573e-08" y1="1017" x2="1921" y2="1017" stroke="#F8CDFC" stroke-width="4"/>
<line x1="-6.3573e-08" y1="704" x2="1921" y2="704" stroke="#F8CDFC" stroke-width="4"/>
<line x1="-6.3573e-08" y1="392" x2="1921" y2="392" stroke="#F8CDFC" stroke-width="4"/>
<line x1="-6.3573e-08" y1="314" x2="1921" y2="314" stroke="#F8CDFC" stroke-width="4"/>
<line x1="-6.3573e-08" y1="2" x2="1921" y2="1.99994" stroke="#F8CDFC" stroke-width="4"/>
<line x1="-6.3573e-08" y1="158" x2="1921" y2="158" stroke="#F8CDFC" stroke-width="4"/>
<line x1="-6.3573e-08" y1="236" x2="1921" y2="236" stroke="#F8CDFC" stroke-width="4"/>
<line x1="-6.3573e-08" y1="80" x2="1921" y2="79.9999" stroke="#F8CDFC" stroke-width="4"/>
</svg>
